<svg xmlns="http://www.w3.org/2000/svg" width="136" height="136" viewBox="0 0 136 136">
  <g id="f1_a" transform="translate(-7439 5482)">
    <g id="椭圆_281" data-name="椭圆 281" transform="translate(7439 -5482)" fill="none" stroke="#f9bed1" stroke-width="5">
      <circle cx="68" cy="68" r="68" stroke="none"/>
      <circle cx="68" cy="68" r="65.5" fill="none"/>
    </g>
    <path id="路径_32945" data-name="路径 32945" d="M79.172,151.367a1.559,1.559,0,1,1,.088,0l-.044,0ZM73,151.126a1.526,1.526,0,0,1-.182-.011h0a1.581,1.581,0,0,1-1.37-1.753,1.558,1.558,0,0,1,1.685-1.433l.047,0a1.588,1.588,0,0,1,1.345,1.778A1.559,1.559,0,0,1,73,151.126Zm12.335-.494a1.553,1.553,0,0,1-1.5-1.292,1.6,1.6,0,0,1,1.209-1.881l.029-.006a1.54,1.54,0,0,1,1.8,1.273,1.6,1.6,0,0,1-1.219,1.874l-.012,0A1.514,1.514,0,0,1,85.332,150.632Zm-18.427-.726a1.5,1.5,0,0,1-.405-.057l-.009,0a1.611,1.611,0,0,1-1.091-1.959,1.53,1.53,0,0,1,1.876-1.138l.032.009a1.61,1.61,0,0,1,1.077,1.967A1.547,1.547,0,0,1,66.905,149.906Zm24.41-.985a1.54,1.54,0,0,1-1.444-1.054,1.622,1.622,0,0,1,.918-2.053l.026-.009a1.519,1.519,0,0,1,1.964.965,1.622,1.622,0,0,1-.926,2.049l-.013,0A1.483,1.483,0,0,1,91.315,148.921Zm-30.258-1.2a1.462,1.462,0,0,1-.626-.142l-.021-.01a1.63,1.63,0,0,1-.765-2.12,1.51,1.51,0,0,1,2.032-.8,1.639,1.639,0,0,1,.776,2.123,1.531,1.531,0,0,1-1.4.946Zm35.914-1.447a1.527,1.527,0,0,1-1.356-.848,1.637,1.637,0,0,1,.632-2.168,1.5,1.5,0,0,1,2.086.632,1.637,1.637,0,0,1-.605,2.175l-.035.02A1.48,1.48,0,0,1,96.971,146.274Zm13.945-14.317.01.007-.162-.121Zm-70.878-6.981a1.539,1.539,0,0,1-1.424-1l0-.011a1.626,1.626,0,0,1,.833-2.091,1.514,1.514,0,0,1,2.005.869l.011.028a1.625,1.625,0,0,1-.845,2.087,1.474,1.474,0,0,1-.577.118Zm76.216-3.074a1.484,1.484,0,0,1-.486-.083,1.618,1.618,0,0,1-.977-2.01,1.529,1.529,0,0,1,1.914-1.061,1.613,1.613,0,0,1,1.024,1.994l-.019.063A1.542,1.542,0,0,1,116.254,121.9Zm-78.093-3.092a1.551,1.551,0,0,1-1.493-1.23l0-.021a1.607,1.607,0,0,1,1.137-1.93,1.533,1.533,0,0,1,1.85,1.186l0,.021a1.606,1.606,0,0,1-1.136,1.929A1.478,1.478,0,0,1,38.161,118.811Zm79.505-3.207a1.454,1.454,0,0,1-.269-.025,1.6,1.6,0,0,1-1.248-1.837,1.55,1.55,0,0,1,1.743-1.343,1.591,1.591,0,0,1,1.295,1.815l-.01.066A1.556,1.556,0,0,1,117.666,115.6Zm-80.453-3.189a1.561,1.561,0,0,1-1.528-1.46l0-.066a1.579,1.579,0,0,1,1.443-1.693,1.559,1.559,0,0,1,1.622,1.487,1.585,1.585,0,0,1-1.4,1.726C37.3,112.412,37.257,112.414,37.213,112.414Zm80.924-3.261a1.569,1.569,0,0,1-1.535-1.6v-.117a1.537,1.537,0,1,1,3.071,0v.021c0,.011,0,.023,0,.033s0,.028,0,.042v.021A1.569,1.569,0,0,1,118.137,109.153Zm-80.927-3.2c-.044,0-.089,0-.134-.006a1.582,1.582,0,0,1-1.4-1.729,1.553,1.553,0,0,1,1.622-1.486,1.579,1.579,0,0,1,1.443,1.692l-.005.066A1.562,1.562,0,0,1,37.209,105.948Zm80.445-3.341a1.555,1.555,0,0,1-1.51-1.324l-.011-.066a1.594,1.594,0,0,1,1.3-1.818,1.547,1.547,0,0,1,1.741,1.347,1.6,1.6,0,0,1-1.248,1.836A1.449,1.449,0,0,1,117.655,102.607Zm.258-1.663-.259.04ZM38.141,99.553a1.473,1.473,0,0,1-.358-.045,1.606,1.606,0,0,1-1.138-1.926,1.537,1.537,0,0,1,1.813-1.22,1.6,1.6,0,0,1,1.188,1.9l-.014.066A1.549,1.549,0,0,1,38.141,99.553Zm78.105-3.236a1.555,1.555,0,0,1-1.464-1.1l-.017-.056a1.614,1.614,0,0,1,1.016-2,1.524,1.524,0,0,1,1.919,1.06v0a1.609,1.609,0,0,1-.974,2.017A1.441,1.441,0,0,1,116.246,96.317ZM40,93.378a1.478,1.478,0,0,1-.578-.118,1.626,1.626,0,0,1-.845-2.087l.008-.019a1.515,1.515,0,0,1,2-.882,1.626,1.626,0,0,1,.845,2.087l-.008.02a1.537,1.537,0,0,1-1.423,1Zm73.915-3.059a1.538,1.538,0,0,1-1.372-.872l-.023-.047a1.633,1.633,0,0,1,.7-2.144,1.508,1.508,0,0,1,2.056.73v0a1.628,1.628,0,0,1-.663,2.151,1.466,1.466,0,0,1-.7.178ZM42.752,87.575a1.475,1.475,0,0,1-.8-.235,1.641,1.641,0,0,1-.515-2.2,1.5,1.5,0,0,1,2.082-.584,1.64,1.64,0,0,1,.579,2.183l-.036.063a1.52,1.52,0,0,1-1.312.768Zm67.977-2.813a1.517,1.517,0,0,1-1.272-.7,1.638,1.638,0,0,1,.362-2.227,1.5,1.5,0,0,1,2.146.38l.033.049a1.646,1.646,0,0,1-.408,2.225,1.482,1.482,0,0,1-.861.276Zm-64.41-2.482a1.5,1.5,0,0,1-.98-.369,1.65,1.65,0,0,1-.2-2.256l.013-.016a1.492,1.492,0,0,1,2.162-.21,1.649,1.649,0,0,1,.2,2.256L47.5,81.7A1.506,1.506,0,0,1,46.319,82.281Zm60.454-2.5a1.5,1.5,0,0,1-1.108-.492,1.653,1.653,0,0,1,.021-2.267,1.489,1.489,0,0,1,2.169.022l.026.027a1.651,1.651,0,0,1-.044,2.265,1.5,1.5,0,0,1-1.063.446ZM50.617,77.614a1.5,1.5,0,0,1-1.151-.54,1.65,1.65,0,0,1,.133-2.261l.006-.006a1.493,1.493,0,0,1,2.168.123,1.649,1.649,0,0,1-.114,2.258l-.025.023a1.5,1.5,0,0,1-1.017.4Zm51.52-2.134a1.487,1.487,0,0,1-.906-.309l-.052-.041a1.648,1.648,0,0,1-.269-2.248,1.493,1.493,0,0,1,2.151-.283,1.648,1.648,0,0,1,.317,2.226,1.513,1.513,0,0,1-1.24.656Zm.138-1.82-.154.206Zm-46.734.022a1.519,1.519,0,0,1-1.3-.74,1.644,1.644,0,0,1,.465-2.21,1.5,1.5,0,0,1,2.117.437,1.644,1.644,0,0,1-.408,2.224l-.054.037a1.481,1.481,0,0,1-.824.251Zm41.383-1.717a1.473,1.473,0,0,1-.717-.187l-.036-.021a1.638,1.638,0,0,1-.605-2.175,1.5,1.5,0,0,1,2.085-.632l0,0a1.643,1.643,0,0,1,.621,2.168,1.526,1.526,0,0,1-1.351.844ZM60.982,70.579a1.534,1.534,0,0,1-1.4-.942,1.629,1.629,0,0,1,.766-2.118l.036-.016a1.511,1.511,0,0,1,2.022.825,1.63,1.63,0,0,1-.792,2.109,1.481,1.481,0,0,1-.631.143Zm0,0" transform="translate(7429.328 -5523.367)" fill="#a7c7d3"/>
    <g id="组_17118" data-name="组 17118" transform="translate(7456.999 -5463)">
      <path id="路径_32946" data-name="路径 32946" d="M205.7,204.5,182.887,181.7a3.652,3.652,0,1,1,5.165-5.164l-5.874-5.874A3.65,3.65,0,0,1,187,165.191l-2.235-2.235a3.652,3.652,0,0,1-1.073-2.587,3.425,3.425,0,0,1,.049-.594,3.653,3.653,0,0,1,6.19-1.986l2.56,2.56a3.653,3.653,0,0,1-1.026-3.168,3.614,3.614,0,0,1,1.022-2,3.656,3.656,0,0,1,5.169,0l14.823,14.823.041-.059a6.679,6.679,0,0,1,9.454.008l6.911,6.911a7.09,7.09,0,0,1,2.077,5l0,4.324a7.631,7.631,0,0,0,2.237,5.39l1.541,1.541-17.628,17.628-1.97-1.97a7.636,7.636,0,0,0-4.9-2.22A7.087,7.087,0,0,1,205.7,204.5Zm0,0" transform="translate(-145.596 -123.896)" fill="#fecbaa"/>
      <path id="路径_32947" data-name="路径 32947" d="M356.877,364.779l20.01-20.01a1.688,1.688,0,0,1,2.387,0l7.126,7.126a1.688,1.688,0,0,1,0,2.387l-20.009,20.01a1.688,1.688,0,0,1-2.387,0l-7.127-7.126A1.689,1.689,0,0,1,356.877,364.779Zm0,0" transform="translate(-286.507 -276.774)" fill="#fdd559"/>
      <path id="路径_32948" data-name="路径 32948" d="M461.852,382.014a1.512,1.512,0,1,0,0-2.141A1.513,1.513,0,0,0,461.852,382.014Zm0,0" transform="translate(-370.94 -305.038)" fill="#ff8812"/>
      <path id="路径_32949" data-name="路径 32949" d="M346.2,233.469l-5.1-5.1.041-.059a6.643,6.643,0,0,1,2.581-1.6l4.624,4.624a1.515,1.515,0,1,1-2.142,2.142Zm0,0" transform="translate(-274.216 -182.254)" fill="#ffae85"/>
      <path id="路径_32950" data-name="路径 32950" d="M86.388,204.513,109.2,181.7a3.652,3.652,0,1,0-5.165-5.165l5.874-5.873a3.65,3.65,0,0,0-4.817-5.466l2.235-2.236a3.649,3.649,0,0,0,1.073-2.586,3.428,3.428,0,0,0-.049-.594,3.653,3.653,0,0,0-6.19-1.985l-2.56,2.56a3.652,3.652,0,1,0-5.165-5.165L79.609,170.016l-.041-.058a6.68,6.68,0,0,0-9.454.007L63.2,176.877a7.09,7.09,0,0,0-2.077,5l0,4.323a7.628,7.628,0,0,1-2.236,5.391l-1.541,1.541,17.628,17.628,1.97-1.97a7.636,7.636,0,0,1,4.9-2.22,7.087,7.087,0,0,0,4.548-2.063Zm0,0" transform="translate(-46.099 -123.902)" fill="#fecbaa"/>
      <path id="路径_32951" data-name="路径 32951" d="M30.018,364.789,10.009,344.78a1.688,1.688,0,0,0-2.387,0L.5,351.906a1.688,1.688,0,0,0,0,2.387L20.5,374.3a1.689,1.689,0,0,0,2.388,0l7.126-7.126a1.689,1.689,0,0,0,0-2.388Zm0,0" transform="translate(0 -276.783)" fill="#ff84a7"/>
      <path id="路径_32952" data-name="路径 32952" d="M107.675,451.953a1.512,1.512,0,1,0-2.141,0A1.513,1.513,0,0,0,107.675,451.953Zm0,0" transform="translate(-84.486 -361.263)" fill="#ef6085"/>
      <path id="路径_32953" data-name="路径 32953" d="M134.274,233.481l5.1-5.1-.041-.058a6.643,6.643,0,0,0-2.581-1.6l-4.624,4.623a1.515,1.515,0,1,0,2.143,2.143Zm0,0" transform="translate(-105.867 -182.264)" fill="#ffae85"/>
      <path id="路径_32954" data-name="路径 32954" d="M183.05,81.111v32.257a3.652,3.652,0,1,1-7.3,0v8.306a3.645,3.645,0,0,1-1.068,2.585,3.646,3.646,0,0,1-4.7.4,3.65,3.65,0,0,1-1.5-2.524v3.162a3.651,3.651,0,0,1-1.071,2.587,3.456,3.456,0,0,1-.454.386,3.654,3.654,0,0,1-5.782-2.973v-3.62a3.652,3.652,0,1,1-7.3,0V100.711l-.07.012a6.679,6.679,0,0,1-6.68-6.69V84.258a7.094,7.094,0,0,1,2.07-5.007l3.054-3.06a7.631,7.631,0,0,0,2.23-5.393v-2.18H179.4V71.4a7.638,7.638,0,0,0,1.895,5.033,7.088,7.088,0,0,1,1.758,4.674Zm0,0" transform="translate(-118.268 -55.164)" fill="#fedfc5"/>
      <path id="路径_32955" data-name="路径 32955" d="M175.526,176.534a3.656,3.656,0,0,0-5.17,0l5.874-5.874a3.65,3.65,0,0,0-4.817-5.466l2.236-2.236a3.651,3.651,0,0,0,1.072-2.586,3.436,3.436,0,0,0-.048-.594,3.654,3.654,0,0,0-6.191-1.985l-2.56,2.56a3.652,3.652,0,1,0-5.165-5.165l-14.823,14.823-.041-.058a6.643,6.643,0,0,0-2.581-1.6,6.714,6.714,0,0,0-3.468-.214,9.784,9.784,0,0,0,5.147,3.892v18.38a6.689,6.689,0,0,0,7.987,6.561,6.7,6.7,0,0,0,3.875,3.4l18.67-18.67a3.653,3.653,0,0,0,0-5.169Zm0,0" transform="translate(-112.424 -123.902)" fill="#ffae85"/>
      <path id="路径_32956" data-name="路径 32956" d="M213.4,182.1V169.2a6.777,6.777,0,0,0-.892.75l-.041.059-14.823-14.823a3.656,3.656,0,0,0-5.169,0,3.614,3.614,0,0,0-1.022,2,3.653,3.653,0,0,0,1.026,3.168l-2.56-2.56a3.651,3.651,0,0,0-6.191,1.986,3.5,3.5,0,0,0-.048.594,3.652,3.652,0,0,0,1.073,2.587l2.235,2.235a3.646,3.646,0,0,0-5.843,2.3,3.578,3.578,0,0,0-.047.584,3.641,3.641,0,0,0,1.072,2.583l5.874,5.874a3.652,3.652,0,1,0-5.165,5.165l15.28,15.279a6.709,6.709,0,0,0,1.255.118,6.624,6.624,0,0,0,3.91-1.265,6.758,6.758,0,0,0,.816-.695A6.641,6.641,0,0,0,206.1,190.4v-1.647c.205.019.414.028.622.028A6.692,6.692,0,0,0,213.4,182.1Zm0,0" transform="translate(-145.59 -123.896)" fill="#ffae85"/>
      <path id="路径_32957" data-name="路径 32957" d="M183.05,81.111v32.257a3.653,3.653,0,0,1-3.652,3.658c-.054,0-.113,0-.172,0a3.614,3.614,0,0,1-1.961-.687s0,0,0,0a3.65,3.65,0,0,1-1.515-2.965v8.306a3.645,3.645,0,0,1-1.068,2.585,3.646,3.646,0,0,1-4.7.4,3.65,3.65,0,0,1-1.5-2.524v3.162a3.651,3.651,0,0,1-1.071,2.587,3.457,3.457,0,0,1-.454.386,3.654,3.654,0,0,1-5.782-2.973v-3.62a3.652,3.652,0,1,1-7.3,0V100.711l-.07.012a6.679,6.679,0,0,1-6.68-6.69V84.258a7.094,7.094,0,0,1,2.07-5.007l3.054-3.06a7.653,7.653,0,0,0,2.23-5.393v-2.18H179.4V71.4a6.92,6.92,0,0,0,.24,1.884,7.6,7.6,0,0,0,1.654,3.149,7.144,7.144,0,0,1,1.758,4.674Zm0,0" transform="translate(-118.268 -55.164)" fill="#fedfc5"/>
      <path id="路径_32958" data-name="路径 32958" d="M211.806,81.111v32.257a3.653,3.653,0,0,1-3.652,3.658c-.054,0-.113,0-.172,0a3.614,3.614,0,0,1-1.961-.687l.062-31.083a4.751,4.751,0,0,0-.121-.862,14.05,14.05,0,0,0-14.055-11.338h-9.025a7.6,7.6,0,0,0,.342-2.254v-2.18h24.929V71.4a6.921,6.921,0,0,0,.24,1.884,7.6,7.6,0,0,0,1.654,3.149,7.143,7.143,0,0,1,1.758,4.674Zm0,0" transform="translate(-147.024 -55.165)" fill="#fecbaa"/>
      <path id="路径_32959" data-name="路径 32959" d="M197.088,13.454h-28.3a1.688,1.688,0,0,1-1.688-1.688V1.688A1.688,1.688,0,0,1,168.79,0h28.3a1.688,1.688,0,0,1,1.688,1.688V11.766A1.688,1.688,0,0,1,197.088,13.454Zm0,0" transform="translate(-134.338)" fill="#83d9ff"/>
      <path id="路径_32960" data-name="路径 32960" d="M195.487,28.1a1.513,1.513,0,1,0-1.513,1.515A1.513,1.513,0,0,0,195.487,28.1Zm0,0" transform="translate(-154.725 -21.373)" fill="#5186ff"/>
      <path id="路径_32961" data-name="路径 32961" d="M288.453,204.547v19.846a3.649,3.649,0,0,1-1.516-2.965v8.306a3.643,3.643,0,0,1-1.068,2.586,3.545,3.545,0,0,1-.447.38V204.547a1.515,1.515,0,0,1,3.031,0Zm0,0" transform="translate(-229.459 -163.224)" fill="#fecbaa"/>
      <path id="路径_32962" data-name="路径 32962" d="M251.315,204.546v28.168a3.651,3.651,0,0,1-1.5-2.523v3.162a3.65,3.65,0,0,1-1.071,2.587,3.464,3.464,0,0,1-.454.386v-31.78a1.515,1.515,0,1,1,3.03,0Zm0,0" transform="translate(-199.604 -163.224)" fill="#fecbaa"/>
      <path id="路径_32963" data-name="路径 32963" d="M214.1,204.546v31.771a3.651,3.651,0,0,1-1.515-2.965v-3.62a3.652,3.652,0,0,1-1.515,2.965V204.546a1.515,1.515,0,0,1,3.03,0Zm0,0" transform="translate(-169.686 -163.224)" fill="#fecbaa"/>
      <path id="路径_32964" data-name="路径 32964" d="M169.124,189.276v7.218l-.071.011a6.646,6.646,0,0,1-2.959-.69v-6.539a1.515,1.515,0,0,1,3.03,0Zm0,0" transform="translate(-133.528 -150.948)" fill="#fecbaa"/>
    </g>
  </g>
</svg>
