<svg xmlns="http://www.w3.org/2000/svg" width="136" height="136" viewBox="0 0 136 136">
  <g id="f1_b" transform="translate(-7439 5482)">
    <g id="椭圆_281" data-name="椭圆 281" transform="translate(7439 -5482)" fill="none" stroke="#f9bed1" stroke-width="5">
      <circle cx="68" cy="68" r="68" stroke="none"/>
      <circle cx="68" cy="68" r="65.5" fill="none"/>
    </g>
    <g id="love-bird" transform="translate(7464.677 -5461)">
      <path id="路径_32965" data-name="路径 32965" d="M134.075,437.246h-1.942a3.194,3.194,0,0,1-3.166-3.62l1.47-10.64a1.279,1.279,0,1,1,2.533.35L131.5,433.971a.637.637,0,0,0,.632.717h1.942a1.279,1.279,0,1,1,0,2.557Zm0,0" transform="translate(-106.956 -349.956)" fill="#ffcd00"/>
      <path id="路径_32966" data-name="路径 32966" d="M80.82,448.826H78.878a3.193,3.193,0,0,1-3.165-3.62l1.161-8.263a1.278,1.278,0,1,1,2.532.356l-1.16,8.255a.637.637,0,0,0,.632.715H80.82a1.279,1.279,0,0,1,0,2.557Zm0,0" transform="translate(-62.78 -361.536)" fill="#ffcd00"/>
      <path id="路径_32967" data-name="路径 32967" d="M341.154,441.32h-1.942a1.279,1.279,0,0,1,0-2.557h1.942a.637.637,0,0,0,.631-.722l-1.254-9.806a1.279,1.279,0,1,1,2.537-.324l1.253,9.8a3.194,3.194,0,0,1-3.167,3.612Zm0,0" transform="translate(-280.319 -354.031)" fill="#ff7956"/>
      <path id="路径_32968" data-name="路径 32968" d="M394.412,460.823H392.47a1.279,1.279,0,0,1,0-2.557h1.942a.637.637,0,0,0,.631-.722l-.813-5.782a1.278,1.278,0,1,1,2.532-.356l.814,5.789a3.194,3.194,0,0,1-3.165,3.628Zm0,0" transform="translate(-324.497 -373.533)" fill="#ff7956"/>
      <path id="路径_32969" data-name="路径 32969" d="M191.59,2.147a7.331,7.331,0,0,0-10.369,0L178.6,4.768l-2.621-2.621a7.332,7.332,0,0,0-10.369,10.369L178,24.9a.85.85,0,0,0,1.2,0L191.59,12.516a7.332,7.332,0,0,0,0-10.369Zm0,0" transform="translate(-135.595 0)" fill="#f46262"/>
      <path id="路径_32971" data-name="路径 32971" d="M27.2,186.9H21.089a2.019,2.019,0,0,1-2.019-2.019V147.493a18.274,18.274,0,1,1,36.547,0v10.99A28.417,28.417,0,0,1,27.2,186.9Zm0,0" transform="translate(-15.819 -107.189)" fill="#92d8ff"/>
      <path id="路径_32972" data-name="路径 32972" d="M27.724,147.493A18.28,18.28,0,0,1,41.67,129.736a18.284,18.284,0,0,0-22.6,17.758v37.388a2.02,2.02,0,0,0,2.019,2.019H27.2c.175,0,.349,0,.523-.007Zm0,0" transform="translate(-15.819 -107.189)" fill="#66d3d0"/>
      <path id="路径_32973" data-name="路径 32973" d="M3.769,296.89H2.019A2.019,2.019,0,0,1,0,294.87v-15.59a10.633,10.633,0,0,1,21.265,0v.112a17.5,17.5,0,0,1-17.5,17.5Zm0,0" transform="translate(0 -222.848)" fill="#bdebff"/>
      <path id="路径_32974" data-name="路径 32974" d="M123.2,221.785a10.612,10.612,0,0,0-5.225,1.512,3.035,3.035,0,0,0-1.14,4.092c1.52,2.763,4.185,6.957,6.365,6.957s4.845-4.194,6.365-6.957a3.035,3.035,0,0,0-1.14-4.092A10.614,10.614,0,0,0,123.2,221.785Zm0,0" transform="translate(-96.605 -183.974)" fill="#ffde55"/>
      <path id="路径_32975" data-name="路径 32975" d="M122.028,227.388a3.035,3.035,0,0,1,1.14-4.092,12,12,0,0,1,2.629-1.132,9.365,9.365,0,0,0-2.6-.38,10.614,10.614,0,0,0-5.225,1.512,3.035,3.035,0,0,0-1.14,4.092c1.52,2.763,4.185,6.957,6.365,6.957a4.07,4.07,0,0,0,2.6-1.5A27.012,27.012,0,0,1,122.028,227.388Zm0,0" transform="translate(-96.605 -183.974)" fill="#ffcd00"/>
      <path id="路径_32976" data-name="路径 32976" d="M299.48,186.9h6.111a2.019,2.019,0,0,0,2.019-2.019V147.493a18.274,18.274,0,1,0-36.547,0v10.99A28.417,28.417,0,0,0,299.479,186.9Zm0,0" transform="translate(-224.848 -107.189)" fill="#ffde55"/>
      <path id="路径_32977" data-name="路径 32977" d="M279.715,158.483v-10.99a18.28,18.28,0,0,1,13.947-17.757,18.284,18.284,0,0,0-22.6,17.758v10.99A28.418,28.418,0,0,0,299.48,186.9h6.111a2.028,2.028,0,0,0,.527-.072,28.419,28.419,0,0,1-26.4-28.346Zm0,0" transform="translate(-224.849 -107.189)" fill="#ffcd00"/>
      <path id="路径_32978" data-name="路径 32978" d="M397.266,296.89h1.75a2.019,2.019,0,0,0,2.019-2.019v-15.59a10.633,10.633,0,0,0-21.265,0v.112A17.5,17.5,0,0,0,397.266,296.89Zm0,0" transform="translate(-315.023 -222.848)" fill="#ffeb99"/>
      <path id="路径_32979" data-name="路径 32979" d="M315.7,221.785a10.611,10.611,0,0,1,5.225,1.512,3.035,3.035,0,0,1,1.14,4.092c-1.519,2.763-4.185,6.957-6.365,6.957s-4.845-4.194-6.364-6.957a3.035,3.035,0,0,1,1.139-4.092A10.614,10.614,0,0,1,315.7,221.785Zm0,0" transform="translate(-256.287 -183.974)" fill="#ff9478"/>
      <path id="路径_32980" data-name="路径 32980" d="M314.532,227.388a3.035,3.035,0,0,1,1.139-4.092,12,12,0,0,1,2.629-1.132,9.36,9.36,0,0,0-2.6-.38,10.615,10.615,0,0,0-5.225,1.512,3.035,3.035,0,0,0-1.139,4.092c1.519,2.763,4.185,6.957,6.365,6.957a4.069,4.069,0,0,0,2.6-1.5A27.007,27.007,0,0,1,314.532,227.388Zm0,0" transform="translate(-256.289 -183.974)" fill="#ff7956"/>
      <g id="组_17119" data-name="组 17119" transform="translate(21.663 30.795)">
        <path id="路径_32981" data-name="路径 32981" d="M128.345,185.465a1.279,1.279,0,0,1-1.279-1.279v-2.276a1.279,1.279,0,0,1,2.557,0v2.276A1.278,1.278,0,0,1,128.345,185.465Zm0,0" transform="translate(-127.066 -180.632)" fill="#444346"/>
        <path id="路径_32982" data-name="路径 32982" d="M171.209,185.465a1.279,1.279,0,0,1-1.279-1.279v-2.276a1.279,1.279,0,0,1,2.557,0v2.276A1.278,1.278,0,0,1,171.209,185.465Zm0,0" transform="translate(-162.622 -180.632)" fill="#444346"/>
        <path id="路径_32983" data-name="路径 32983" d="M363.713,185.465a1.278,1.278,0,0,1-1.279-1.279v-2.276a1.279,1.279,0,1,1,2.557,0v2.276A1.279,1.279,0,0,1,363.713,185.465Zm0,0" transform="translate(-322.306 -180.632)" fill="#444346"/>
        <path id="路径_32984" data-name="路径 32984" d="M320.849,185.465a1.278,1.278,0,0,1-1.279-1.279v-2.276a1.279,1.279,0,0,1,2.557,0v2.276A1.279,1.279,0,0,1,320.849,185.465Zm0,0" transform="translate(-286.75 -180.632)" fill="#444346"/>
      </g>
    </g>
  </g>
</svg>
