<svg xmlns="http://www.w3.org/2000/svg" xmlns:xlink="http://www.w3.org/1999/xlink" width="74" height="74" viewBox="0 0 74 74">
  <defs>
    <linearGradient id="linear-gradient" x1="0.5" x2="0.5" y2="1" gradientUnits="objectBoundingBox">
      <stop offset="0" stop-color="#ff637b"/>
      <stop offset="1" stop-color="#ab124b"/>
    </linearGradient>
    <linearGradient id="linear-gradient-2" x1="0.5" y1="1.139" x2="0.5" y2="0.034" gradientUnits="objectBoundingBox">
      <stop offset="0" stop-color="#ffdce2"/>
      <stop offset="0.503" stop-color="#fff5f6"/>
      <stop offset="1" stop-color="#fff"/>
    </linearGradient>
  </defs>
  <g id="f2_a" transform="translate(-7439 5711)">
    <rect id="f2_a-2" data-name="f2_a" width="74" height="74" transform="translate(7439 -5711)" fill="rgba(255,255,255,0)"/>
    <g id="calendar" transform="translate(7451 -5701)">
      <path id="路径_32993" data-name="路径 32993" d="M43.87,4.267H43.5l-.726-.985V1.641a1.641,1.641,0,1,0-3.282,0V3.282l-1.055.985H27.055l-.689-.985V1.641a1.641,1.641,0,1,0-3.282,0V3.282l-.869.985H10.657l-.811-.985V1.641a1.641,1.641,0,1,0-3.282,0V3.282L5.7,4.267H4.485L0,13.238V47.7A1.641,1.641,0,0,0,1.641,49.34H47.7A1.641,1.641,0,0,0,49.34,47.7V13.238Z" fill="url(#linear-gradient)"/>
      <path id="路径_32994" data-name="路径 32994" d="M49.34,31.641A1.641,1.641,0,0,0,47.7,30H42.776v4.923a1.641,1.641,0,0,1-3.282,0V30H26.366v4.923a1.641,1.641,0,0,1-3.282,0V30H9.846v4.923a1.641,1.641,0,0,1-3.282,0V30H1.641A1.641,1.641,0,0,0,0,31.641v8.315H49.34ZM14.769,46.52H8.205a1.641,1.641,0,0,0-1.641,1.641v6.564a1.641,1.641,0,0,0,1.641,1.641h6.564a1.641,1.641,0,0,0,1.641-1.641V48.161A1.641,1.641,0,0,0,14.769,46.52Zm13.238,0H21.443A1.641,1.641,0,0,0,19.8,48.161v6.564a1.641,1.641,0,0,0,1.641,1.641h6.564a1.641,1.641,0,0,0,1.641-1.641V48.161A1.641,1.641,0,0,0,28.007,46.52Zm6.564,0a1.641,1.641,0,0,0-1.641,1.641v6.564a1.641,1.641,0,0,0,1.641,1.641h6.564a1.641,1.641,0,0,0,1.641-1.641V48.161a1.641,1.641,0,0,0-1.641-1.641ZM28.007,59.648H21.443A1.641,1.641,0,0,0,19.8,61.289v6.564a1.641,1.641,0,0,0,1.641,1.641h6.564a1.641,1.641,0,0,0,1.641-1.641V61.289A1.641,1.641,0,0,0,28.007,59.648Zm-13.238,0H8.205a1.641,1.641,0,0,0-1.641,1.641v6.564a1.641,1.641,0,0,0,1.641,1.641h6.564a1.641,1.641,0,0,0,1.641-1.641V61.289A1.641,1.641,0,0,0,14.769,59.648Zm29.648,0a11.542,11.542,0,0,0,0,23.084,11.542,11.542,0,1,0,0-23.084ZM47.7,72.776H44.417a1.641,1.641,0,0,1-1.641-1.641V67.853a1.641,1.641,0,1,1,3.282,0v1.641H47.7a1.641,1.641,0,1,1,0,3.282Z" transform="translate(0 -26.718)" fill="url(#linear-gradient-2)"/>
    </g>
  </g>
</svg>
