<svg xmlns="http://www.w3.org/2000/svg" xmlns:xlink="http://www.w3.org/1999/xlink" width="74" height="74" viewBox="0 0 74 74">
  <defs>
    <linearGradient id="linear-gradient" x1="0.5" x2="0.5" y2="1" gradientUnits="objectBoundingBox">
      <stop offset="0" stop-color="#ff637b"/>
      <stop offset="1" stop-color="#ab124b"/>
    </linearGradient>
  </defs>
  <g id="f2_b" transform="translate(-7654 5711)">
    <rect id="f2_c" width="74" height="74" transform="translate(7654 -5711)" fill="rgba(146,71,71,0)"/>
    <g id="checkboxes" transform="translate(7656.73 -5700.043)">
      <path id="路径_32998" data-name="路径 32998" d="M78.184,45.63H62.852A2.588,2.588,0,0,0,60.3,48.25V63.978A2.588,2.588,0,0,0,62.852,66.6H78.184a2.589,2.589,0,0,0,2.555-2.621V48.25A2.589,2.589,0,0,0,78.184,45.63Zm0-26.212H62.852A2.588,2.588,0,0,0,60.3,22.039V37.766a2.588,2.588,0,0,0,2.555,2.621H78.184a2.589,2.589,0,0,0,2.555-2.621V22.039A2.589,2.589,0,0,0,78.184,19.418Zm0,0" transform="translate(-53.749 -17.374)" fill="url(#linear-gradient)"/>
      <path id="路径_33001" data-name="路径 33001" d="M295.606,81.377v1.278a.639.639,0,0,1-.639.639H265.326a.639.639,0,0,1-.639-.639V81.377a.639.639,0,0,1,.639-.639h29.642A.639.639,0,0,1,295.606,81.377ZM264.687,51.991V50.713a.639.639,0,0,1,.639-.639h23a.639.639,0,0,1,.639.639v1.278a.639.639,0,0,1-.639.639h-23A.639.639,0,0,1,264.687,51.991Zm.639,5.749h25.553a.639.639,0,0,0,.639-.639V55.823a.639.639,0,0,0-.639-.639H265.326a.639.639,0,0,0-.639.639V57.1A.639.639,0,0,0,265.326,57.74Zm0,5.11h15.332a.638.638,0,0,0,.639-.639V60.934a.639.639,0,0,0-.639-.639H265.326a.639.639,0,0,0-.639.639v1.278A.639.639,0,0,0,265.326,62.85Zm0,15.332h23a.639.639,0,0,0,.639-.639V76.266a.639.639,0,0,0-.639-.639h-23a.639.639,0,0,0-.639.639v1.278A.639.639,0,0,0,265.326,78.182Zm15.332,7.666H265.326a.639.639,0,0,0-.639.639v1.278a.639.639,0,0,0,.639.639h15.332a.639.639,0,0,0,.639-.639V86.487A.639.639,0,0,0,280.657,85.848Zm0,0" transform="translate(-232.445 -44.198)" fill="url(#linear-gradient)"/>
      <path id="路径_33003" data-name="路径 33003" d="M11.868,13.363,15.7,17.342l8.475-8.917" transform="translate(-1)" fill="none" stroke="#fff1f3" stroke-linecap="round" stroke-linejoin="round" stroke-width="4"/>
      <path id="路径_33004" data-name="路径 33004" d="M11.868,13.363,15.7,17.342l8.475-8.917" transform="translate(-1 26)" fill="none" stroke="#fff1f3" stroke-linecap="round" stroke-linejoin="round" stroke-width="4"/>
    </g>
  </g>
</svg>
