<svg xmlns="http://www.w3.org/2000/svg" xmlns:xlink="http://www.w3.org/1999/xlink" width="320" height="160" viewBox="0 0 320 160">
  <defs>
    <linearGradient id="linear-gradient" x1="0.08" y1="0.032" x2="0.767" y2="0.979" gradientUnits="objectBoundingBox">
      <stop offset="0" stop-color="#35328d"/>
      <stop offset="0.396" stop-color="#6674c8"/>
      <stop offset="1" stop-color="#3f3d98"/>
    </linearGradient>
    <linearGradient id="linear-gradient-2" x1="0.76" y1="0.049" x2="0.542" y2="0.909" gradientUnits="objectBoundingBox">
      <stop offset="0" stop-color="#d6224c"/>
      <stop offset="1" stop-color="#fc715e"/>
    </linearGradient>
    <linearGradient id="linear-gradient-3" x1="0.76" y1="0.049" x2="0.537" y2="0.951" gradientUnits="objectBoundingBox">
      <stop offset="0" stop-color="#b70932"/>
      <stop offset="1" stop-color="#f96d5b"/>
    </linearGradient>
    <linearGradient id="linear-gradient-4" x1="0.27" y1="0.77" x2="0.075" y2="0.311" gradientUnits="objectBoundingBox">
      <stop offset="0" stop-color="#4345a5"/>
      <stop offset="1" stop-color="#1d1a61"/>
    </linearGradient>
    <linearGradient id="linear-gradient-5" x1="1.002" y1="0.807" x2="1.012" y2="0.337" gradientUnits="objectBoundingBox">
      <stop offset="0" stop-color="#1e396f"/>
      <stop offset="1" stop-color="#0f1d63"/>
    </linearGradient>
    <radialGradient id="radial-gradient" cx="0.309" cy="0.53" r="0.458" gradientTransform="matrix(0.25, -0.968, 0.788, 0.203, -0.185, 0.722)" gradientUnits="objectBoundingBox">
      <stop offset="0" stop-color="#5c61d0"/>
      <stop offset="1" stop-color="#2b2781"/>
    </radialGradient>
    <radialGradient id="radial-gradient-2" cx="0.343" cy="0.428" r="0.689" gradientTransform="matrix(1, -0.027, 0.017, 0.631, -0.007, 0.167)" gradientUnits="objectBoundingBox">
      <stop offset="0" stop-color="#686de8"/>
      <stop offset="1" stop-color="#2b2781"/>
    </radialGradient>
    <radialGradient id="radial-gradient-3" cx="0.5" cy="0.5" r="0.5" gradientUnits="objectBoundingBox">
      <stop offset="0" stop-color="#1a1864"/>
      <stop offset="1" stop-color="#3e3a9b"/>
    </radialGradient>
    <radialGradient id="radial-gradient-4" cx="0.289" cy="0.5" r="1.218" gradientTransform="matrix(-0.945, 0.326, -0.108, -0.314, 1.027, 0.494)" gradientUnits="objectBoundingBox">
      <stop offset="0" stop-color="#c5c3ff"/>
      <stop offset="1" stop-color="#403bae"/>
    </radialGradient>
    <linearGradient id="linear-gradient-7" x1="0.465" y1="0.504" x2="0.643" y2="0.692" gradientUnits="objectBoundingBox">
      <stop offset="0" stop-color="#fcb09f"/>
      <stop offset="1" stop-color="#f07573"/>
    </linearGradient>
    <linearGradient id="linear-gradient-8" x1="0.5" x2="0.5" y2="1" gradientUnits="objectBoundingBox">
      <stop offset="0" stop-color="#dfe2f1"/>
      <stop offset="1" stop-color="#fff"/>
    </linearGradient>
    <linearGradient id="linear-gradient-9" x1="1" y1="0.404" x2="0.4" y2="0.829" gradientUnits="objectBoundingBox">
      <stop offset="0" stop-color="#3d3894"/>
      <stop offset="1" stop-color="#4c56ad"/>
    </linearGradient>
    <linearGradient id="linear-gradient-10" x1="0.642" y1="0.469" x2="0.127" y2="0.568" xlink:href="#linear-gradient-7"/>
    <linearGradient id="linear-gradient-11" x1="0.261" y1="0.916" x2="0.621" y2="0.331" gradientUnits="objectBoundingBox">
      <stop offset="0" stop-color="#fff"/>
      <stop offset="0.999" stop-color="#b7bdd2"/>
    </linearGradient>
    <linearGradient id="linear-gradient-13" x1="0.462" y1="0.091" x2="0.534" y2="0.567" gradientUnits="objectBoundingBox">
      <stop offset="0" stop-color="#fff"/>
      <stop offset="0.999" stop-color="#a2acd5"/>
    </linearGradient>
    <linearGradient id="linear-gradient-14" x1="0.5" y1="0.563" x2="0" y2="1" gradientUnits="objectBoundingBox">
      <stop offset="0" stop-color="#21b4c4"/>
      <stop offset="1" stop-color="#9acc87"/>
    </linearGradient>
    <linearGradient id="linear-gradient-15" x1="0.5" y1="0.563" x2="0" y2="1" gradientUnits="objectBoundingBox">
      <stop offset="0" stop-color="#24a3b1"/>
      <stop offset="1" stop-color="#9acc87"/>
    </linearGradient>
    <linearGradient id="linear-gradient-16" y1="-0.318" xlink:href="#linear-gradient-14"/>
    <linearGradient id="linear-gradient-17" x1="0.173" y1="0.618" x2="0.672" y2="0.456" gradientUnits="objectBoundingBox">
      <stop offset="0" stop-color="#4c56ad"/>
      <stop offset="0.158" stop-color="#4753a8"/>
      <stop offset="1" stop-color="#3d3894"/>
    </linearGradient>
    <filter id="路径_1177" x="114.589" y="30.09" width="44.165" height="68.945" filterUnits="userSpaceOnUse">
      <feOffset dx="-2" input="SourceAlpha"/>
      <feGaussianBlur stdDeviation="6" result="blur"/>
      <feFlood flood-opacity="0.161"/>
      <feComposite operator="in" in2="blur"/>
      <feComposite in="SourceGraphic"/>
    </filter>
    <linearGradient id="linear-gradient-18" x1="0.119" y1="0.324" x2="1.887" y2="0.828" xlink:href="#linear-gradient-13"/>
    <linearGradient id="linear-gradient-20" x1="0.495" y1="0.474" x2="0.223" y2="0.871" xlink:href="#linear-gradient-13"/>
    <linearGradient id="linear-gradient-21" x1="0.414" y1="0.354" x2="0.556" y2="0.686" gradientUnits="objectBoundingBox">
      <stop offset="0" stop-color="#872812"/>
      <stop offset="1" stop-color="#7a0200"/>
    </linearGradient>
  </defs>
  <g id="mrd-logo" transform="translate(-61.566 -277.695)">
    <rect id="矩形_133" data-name="矩形 133" width="320" height="160" transform="translate(61.566 277.695)" fill="rgba(255,255,255,0)"/>
    <g id="组_312" data-name="组 312" transform="translate(61.566 302.26)">
      <path id="路径_2183" data-name="路径 2183" d="M18.109,3.324c.743.221,1.547-1.587.8-1.688A13.893,13.893,0,0,1,16.381.912C17,.531,17.567.129,18.029-.213c.3-.221,0-.663-.382-.964h1.025c.522,0,.522-1.326,0-1.326H15.638v-.743h2.049c.522,0,.522-1.306,0-1.306H15.638V-5.3h2.371c.482,0,.482-1.286,0-1.286H15.638v-.764h.683c1.346,0,1.607-.221,1.607-1.246v-.8c0-.985-.321-1.246-1.607-1.246H14.513c-1.206,0-1.487.261-1.487,1.246v.8c0,.784.121,1.065.743,1.206v.8h-2.21v-.824c.542-.141.683-.442.683-1.185v-.824c0-.985-.3-1.246-1.487-1.246H8.988c-1.266,0-1.567.281-1.567,1.246v.824c0,1.025.3,1.246,1.567,1.246h.7v.764H7.38C6.9-6.582,6.9-5.3,7.38-5.3H9.691v.743H7.7c-.542,0-.542,1.306,0,1.306H9.691V-2.5H7.26c-.542,0-.542,1.326,0,1.326h2.994A14.627,14.627,0,0,1,6.717.31L6.6.37V-1.519c0-1.386-.321-1.748-1.668-1.748H3.2c-1.346,0-1.648.362-1.648,1.748V1.355c0,1.386.3,1.748,1.648,1.748H4.929C6.3,3.1,6.6,2.741,6.6,1.355v-.04c.221.4.563.743.9.6.563-.181,1.105-.4,1.627-.623v.362q0,2.321,2.23,1.748c-.02,0,.884-.3,1.949-.7.643-.261.321-1.989-.3-1.668-.462.181-1.206.4-1.989.623V.35c.4-.241.784-.5,1.165-.764C13.569,1.576,15.176,2.52,18.109,3.324Zm.442-14.707c.583,0,.583-1.527,0-1.527H14.031a14.1,14.1,0,0,0-.6-1.286c-.422-.723-2.512-.342-2.09.4a9.706,9.706,0,0,1,.422.884H7.481c-.6,0-.6,1.527,0,1.527ZM3.4-11.806a.074.074,0,0,0,.02.06H1.352c-.723,0-.723,1.848,0,1.848H6.516c.723,0,.723-1.848,0-1.848H5.25a.456.456,0,0,0,.141-.462A19.567,19.567,0,0,0,4.708-14.1c-.321-.683-2.15-.241-1.889.5A12.36,12.36,0,0,1,3.4-11.806ZM6.074-7.044c.683,0,.683-1.768,0-1.768h-4c-.7,0-.7,1.768,0,1.768Zm0,2.793c.683,0,.683-1.748,0-1.748h-4c-.7,0-.7,1.748,0,1.748ZM3.2-1.016c0-.5,0-.5.5-.5h.723c.5,0,.5,0,.5.5V.852c0,.5,0,.5-.5.5H3.7c-.5,0-.5,0-.5-.5ZM14.834.008a5.877,5.877,0,0,1-1.145-1.185h2.853A15.7,15.7,0,0,1,14.834.008ZM11.559-3.247h2.21V-2.5h-2.21Zm0-2.049h2.21v.743h-2.21ZM8.988-9.415h1.768v.824H8.988Zm5.525.02h1.808v.8H14.513ZM11.358,3.4h.04ZM33.661.651,29-11.163a1.574,1.574,0,0,0-1.607-1.165H27.07a1.586,1.586,0,0,0-1.627,1.165L20.782.651a2.858,2.858,0,0,0-.241.924c0,.462.281.723.944.723h.482a.982.982,0,0,0,1.025-.764l1.165-3.154h6.128l1.165,3.154a.982.982,0,0,0,1.025.764h.482c.683,0,.944-.261.944-.723A2.857,2.857,0,0,0,33.661.651ZM24.9-3.628l2.331-6.349,2.331,6.349Zm10.97,5.184c0,.5.643.743,1.185.743.583,0,1.206-.241,1.206-.743v-13.08c0-.522-.623-.743-1.206-.743-.563,0-1.185.241-1.185.743ZM48.308,2.2c-.643.6,1,2.13,1.627,1.507C53.09.631,53.713-1.338,53.954-7.787l.02-.985H55.9c.5,0,.5,0,.482.5l-.3,7.936c0,1.125-.362,1.627-2.431,1.406l-.623-.04c-.844-.1-.442,2.11.4,2.11l.643.04c3.235.161,4-.583,4.1-2.592l.342-9.363c.06-1.627-.321-2.049-2.11-2.049H54.014l.08-2.893c0-.844-2.13-.844-2.13,0,0,.422,0,1.627-.02,2.893H50.679c-.8,0-.8,2.049,0,2.049H51.9c-.02.3-.02.583-.02.8-.1,3.978-.321,5.887-1.286,7.555-.06-.462-.261-.8-.6-.743l-.422.08V-11.2c0-1.668-.4-2.069-2.07-2.069H44.531c-1.668,0-2.069.4-2.069,2.069V-.032l-.924.08c-.9.1-.542,2.291.3,2.19,2.431-.3,5.144-.723,7.655-1.185A16.473,16.473,0,0,1,48.308,2.2Zm-3.777-5.2H47.5v2.27c-.985.161-1.989.3-2.974.442Zm0-7.7c0-.5,0-.5.5-.5H47c.5,0,.5,0,.5.5v1.668H44.531Zm0,3.637H47.5v2.11H44.531ZM66.692-9.576C66.17-8.993,67.8-7.767,68.34-8.41a20.99,20.99,0,0,0,1.728-2.27h6.651c.5,0,.5,0,.181.4l-.663.844c-.482.643,1.487,1.246,1.969.6L79.35-10.44c.422-.583.583-2.19-.864-2.19H71.173a8.61,8.61,0,0,0,.422-.924c.321-.7-1.567-1.246-1.889-.563A21.115,21.115,0,0,1,66.692-9.576Zm-4.882.9c-.643.643.241,2.793.884,2.15a13.949,13.949,0,0,0,1.165-1.246v4.4c0,.8,2.049.8,2.049,0V-10.58a19.623,19.623,0,0,0,1.447-2.913c.321-.784-1.788-1.326-2.09-.563A21.42,21.42,0,0,1,61.81-8.671ZM75.794.491c.1-.784-1.889-1.366-1.989-.563-.221,1.427-.3,1.607-1.286,1.607H69.505c-.8,0-1.065-.2-1.065-1.065V-2.121c0-.8-2.09-.8-2.09,0V1.053c0,1.949.683,2.451,2.471,2.451h4.119C74.589,3.5,75.372,3.183,75.794.491ZM71.334.229c.482.643,2.049-.643,1.567-1.286a20.311,20.311,0,0,0-1.648-1.869.453.453,0,0,0-.221-.1h.141c2.592.161,3.3-.6,3.3-2.11v-4.38c0-.8-2.07-.8-2.07,0V-5.9c0,.683-.221,1.085-1.768.864l-.382-.04c-.824-.1-.342,1.969.482,2.029h.08c-.583.1-1.427.9-1.045,1.326A22.952,22.952,0,0,1,71.334.229ZM78.1,2.319c.422.743,2.27-.422,1.848-1.145a37.586,37.586,0,0,0-2.572-3.838c-.482-.643-2.21.442-1.728,1.065A29.63,29.63,0,0,1,78.1,2.319ZM66.411-4.774c-.542.542,1.125,1.627,1.668,1.085a22.481,22.481,0,0,0,2.753-3.958c.382-.643-1.406-1.507-1.788-.864A19.4,19.4,0,0,1,66.411-4.774ZM61.569,1.656c-.482.7,1.487,1.648,1.969.964A32.052,32.052,0,0,0,65.406-1.3c.321-.743-1.627-1.406-1.949-.663A20.908,20.908,0,0,1,61.569,1.656ZM78.024-3.769c.442.7,2.19-.5,1.708-1.145a27.058,27.058,0,0,0-2.813-3.6c-.482-.583-2.049.542-1.567,1.125A27.072,27.072,0,0,1,78.024-3.769Zm21.981-.924c.964,0,.964-2.451,0-2.451H82.826c-.964,0-.964,2.451,0,2.451Zm18.987,1.467c0-1.065-.462-1.346-2.25-1.346h-9.263c-1.768,0-2.23.281-2.23,1.346V3.2c0,.884,2.23.884,2.23,0V1.053h9.263v.141c0,.743-.08,1.045-2.552.824l-.884-.06c-.643-.06-.342,1.627.3,1.627l.964.04c3.878.161,4.42-.522,4.42-2.411Zm1.165-8.3c.563,0,.563-1.487,0-1.487h-2.773a13.148,13.148,0,0,0-.7-1.306c-.382-.643-2.311-.04-1.869.6.1.161.221.4.382.7h-2.974c-.563,0-.563,1.487,0,1.487h.9c-.221.221-.321.422-.141.643s.542.643.764.964H111.9c-.563,0-.563,1.447,0,1.447h3.094v.9H112.2c-.563,0-.563,1.447,0,1.447h2.793v.844c0,.8,2.049.8,2.049,0V-6.12h3.034c.563,0,.563-1.447,0-1.447h-3.034v-.9h3.436c.563,0,.563-1.447,0-1.447h-2.11c.241-.321.462-.663.683-.964.141-.221,0-.422-.221-.643ZM109.408-9.817c1.507,0,1.869-.261,1.869-1.306v-1.105c0-1.045-.362-1.326-1.869-1.326h-3.074c-1.668,0-2.069.3-2.069,1.427v.964a4.819,4.819,0,0,1-1.527,4.039c-.542.482.743,1.929,1.246,1.386a13,13,0,0,0,1.125-1.386V-6.6c0,1.045.342,1.266,1.748,1.266h2.753c1.447,0,1.748-.221,1.748-1.266V-7.747c0-1-.362-1.266-1.748-1.266h-2.753a5.282,5.282,0,0,0-.864.06l.2-.864ZM107.479-1.1h9.263v.784h-9.263Zm0-1.627c0-.5,0-.5.5-.5h8.258c.5,0,.5,0,.5.5v.281h-9.263Zm-1.246-8.941c0-.542.02-.563.563-.563h2.11c.5,0,.5,0,.5.5v.1c0,.5,0,.5-.5.5h-2.672Zm.623,4.42c0-.5,0-.5.5-.5h1.748c.5,0,.5,0,.5.5V-7.1c0,.5,0,.5-.5.5h-1.748c-.5,0-.5,0-.5-.5ZM115.4-10.56c-.161-.241-.482-.663-.7-.964h2.753a12.889,12.889,0,0,1-1.206,1.607h-1C115.456-10.138,115.516-10.359,115.4-10.56Zm10.327-.422c-.864,0-.864,2.17,0,2.17h10.79c.5,0,.5,0,.121.342a50.373,50.373,0,0,1-9.4,6.309,1.216,1.216,0,0,0-.482-.08c-.542,0-.844.161-1.467.8-.6.643-1.507,1.688-1.828,2.11-.522.8,1.085,2.652,1.627,1.828l1.125-1.427c.482-.542.522-.542.723-.643a2.693,2.693,0,0,1,.723.683c1.286,1.447,2.632,1.748,5.927,1.748h7.233c.864,0,1.346-2.19.462-2.19H133.4c-2.351,0-3.376-.141-4.44-1.206a54.45,54.45,0,0,0,10.95-7.977c.583-.583.723-2.471-.964-2.471h-4.822a.564.564,0,0,0,.221-.683A15.922,15.922,0,0,0,133-14.076c-.462-.723-2.592.02-2.13.743.4.643.944,1.688,1.266,2.351ZM144.328,1.8c-.8.542.844,2.391,1.668,1.848,5-3.4,6.289-5.766,6.671-12.055h5.425c.5,0,.522,0,.462.5l-.281,7.133c-.1,1.587-.522,2.11-3.7,1.889l-1.105-.06c-.964-.06-.5,2.351.462,2.351l.985.04c4.42.161,5.505-.844,5.606-3.154l.382-8.7c.1-1.848-.4-2.311-2.311-2.311h-5.827l.1-3.134c0-.884-2.23-.884-2.291,0l-.1,3.134h-5.164c-.924,0-.924,2.311,0,2.311h5.063C150.055-2.865,148.789-1.077,144.328,1.8Z" transform="translate(159.083 113.981)" fill="#413f9a"/>
      <path id="路径_1234" data-name="路径 1234" d="M-347.736-35.488q2.459-.843,5.9-1.651a39.068,39.068,0,0,1,8.713-.808,35.426,35.426,0,0,1,5.691.457,14.861,14.861,0,0,1,5.2,1.862,24.934,24.934,0,0,1,4.286-1.616,20.21,20.21,0,0,1,5.551-.7,31.789,31.789,0,0,1,5.656.527,12.857,12.857,0,0,1,5.27,2.213,12.339,12.339,0,0,1,3.865,4.848A19.556,19.556,0,0,1-296.09-22V-.987a28.359,28.359,0,0,1-3.3.457q-1.476.105-2.6.105-1.195,0-2.67-.105a28.36,28.36,0,0,1-3.3-.457V-20.732q0-3.724-1.265-5.34a4.947,4.947,0,0,0-4.146-1.616,8.88,8.88,0,0,0-1.932.211,9.811,9.811,0,0,0-1.3.351,22.651,22.651,0,0,1,.632,5.621V-.987a28.361,28.361,0,0,1-3.3.457q-1.476.105-2.6.105-1.195,0-2.67-.105a28.363,28.363,0,0,1-3.3-.457V-20.732q0-3.724-1.194-5.34t-4.075-1.616a10.478,10.478,0,0,0-1.651.141,3.5,3.5,0,0,0-1.089.281V-.987a28.363,28.363,0,0,1-3.3.457q-1.476.105-2.6.105-1.195,0-2.67-.105a28.362,28.362,0,0,1-3.3-.457Zm57.408-1.616q3.3-.422,6.851-.7t6.71-.281q8.5,0,12.753,3.2a10.565,10.565,0,0,1,4.251,8.959,13.085,13.085,0,0,1-.492,3.794,12.21,12.21,0,0,1-1.195,2.776,8.341,8.341,0,0,1-1.476,1.862q-.773.7-1.265,1.124l8.01,15.318a27.384,27.384,0,0,1-3.127.422q-1.721.141-3.338.141-1.967,0-3.794-.141a20.364,20.364,0,0,1-3.021-.422l-7.8-16.583.984-.562a8.807,8.807,0,0,0,3.373-2.986,6.7,6.7,0,0,0,.913-3.408,4.186,4.186,0,0,0-1.089-2.986,4.58,4.58,0,0,0-3.478-1.159,11.117,11.117,0,0,0-2.038.141V-.987a28.361,28.361,0,0,1-3.3.457q-1.476.105-2.6.105-1.195,0-2.6-.105a28.759,28.759,0,0,1-3.232-.457Zm106.4,24.1q1.616-.211,3.092-.351t2.881-.141q1.405,0,2.881.141t3.092.351q.281,1.616.422,3.092t.141,2.881q0,1.405-.141,2.881t-.422,3.092q-1.616.281-3.092.422t-2.881.141q-1.405,0-2.881-.141t-3.092-.422q-.281-1.616-.422-3.092t-.141-2.881q0-1.405.141-2.881T-183.926-13Zm45.033,1.335A17.128,17.128,0,0,1-137-7.417a18.806,18.806,0,0,1,.7,5.375,25.548,25.548,0,0,1-5.9,1.616,40.893,40.893,0,0,1-5.34.351,21.866,21.866,0,0,1-7.94-1.335,15.585,15.585,0,0,1-5.8-3.83,16.278,16.278,0,0,1-3.548-5.973,24.033,24.033,0,0,1-1.195-7.835,23.885,23.885,0,0,1,1.195-7.729,16.488,16.488,0,0,1,3.513-6.008,16.11,16.11,0,0,1,5.692-3.9,19.953,19.953,0,0,1,7.729-1.405q1.476,0,2.811.07a24.49,24.49,0,0,1,2.635.281,19.94,19.94,0,0,1,2.67.632q1.37.422,3.057,1.054a16.214,16.214,0,0,1-.422,4.743,19.388,19.388,0,0,1-1.757,4.6q-1.195-.422-2.143-.668t-1.792-.386a13.649,13.649,0,0,0-1.651-.176q-.808-.035-1.722-.035a8.011,8.011,0,0,0-5.586,2q-2.213,2-2.213,6.921a12.052,12.052,0,0,0,.668,4.321,6.957,6.957,0,0,0,1.757,2.705,6.407,6.407,0,0,0,2.53,1.405,10.829,10.829,0,0,0,3.057.422,15.809,15.809,0,0,0,3.548-.351A28.37,28.37,0,0,0-138.894-11.668Zm25.428-12.788a3.778,3.778,0,0,0-.7-2.108,4.19,4.19,0,0,0-1.616-1.3,7.861,7.861,0,0,0-2.178-.632,16.885,16.885,0,0,0-2.459-.176,23.616,23.616,0,0,0-3.935.386,28.417,28.417,0,0,0-4.638,1.23q-.632-1.195-1.089-2.178a10.723,10.723,0,0,1-.7-2,15.228,15.228,0,0,1-.351-2.108q-.105-1.089-.105-2.494a44.665,44.665,0,0,1,6.71-1.686,36.525,36.525,0,0,1,6.008-.562,23.122,23.122,0,0,1,6.605.878A13.153,13.153,0,0,1-106.9-34.5a11.962,11.962,0,0,1,3.2,4.673,18.435,18.435,0,0,1,1.124,6.781V-2.463q-2.67.773-6.465,1.546a40.068,40.068,0,0,1-8.01.773,31.475,31.475,0,0,1-6.71-.668,14.911,14.911,0,0,1-5.235-2.143,10.186,10.186,0,0,1-3.408-3.9,13.022,13.022,0,0,1-1.23-5.938,10.176,10.176,0,0,1,1.476-5.692,11.112,11.112,0,0,1,3.794-3.584,16.166,16.166,0,0,1,5.129-1.862,29.712,29.712,0,0,1,5.481-.527Zm0,7.448h-4.005a7.677,7.677,0,0,0-4.146,1.054A3.3,3.3,0,0,0-123.3-13a3.5,3.5,0,0,0,.632,2.213,4.08,4.08,0,0,0,1.581,1.23A7.284,7.284,0,0,0-119.051-9a15.74,15.74,0,0,0,2,.141A16.9,16.9,0,0,0-115.222-9a15.362,15.362,0,0,0,1.757-.281Zm24.937,1.476a13.6,13.6,0,0,1-6.183-3.584A9.457,9.457,0,0,1-97.171-26a11,11,0,0,1,1.124-4.989,11.06,11.06,0,0,1,3.162-3.83,14.767,14.767,0,0,1,4.813-2.424,21.094,21.094,0,0,1,6.148-.843,33.494,33.494,0,0,1,5.832.562,42.3,42.3,0,0,1,6.254,1.616,21.37,21.37,0,0,1-.913,4.813,28.624,28.624,0,0,1-1.757,4.532,31.45,31.45,0,0,0-4.567-1.405,21.459,21.459,0,0,0-4.919-.632q-3.3,0-3.3,1.827a1.308,1.308,0,0,0,.773,1.195,8.588,8.588,0,0,0,1.757.7l4.567,1.195a22.883,22.883,0,0,1,3.83,1.37,9.985,9.985,0,0,1,2.951,2.073,9.01,9.01,0,0,1,1.932,3.092,12.36,12.36,0,0,1,.7,4.427,11.588,11.588,0,0,1-1.089,4.989,11.029,11.029,0,0,1-3.232,4.005,16.386,16.386,0,0,1-5.27,2.67,24.017,24.017,0,0,1-7.2.984,37.217,37.217,0,0,1-6.254-.492,34.45,34.45,0,0,1-6.113-1.686,28.255,28.255,0,0,1,2.6-9.7,21.833,21.833,0,0,0,4.708,1.581,23.415,23.415,0,0,0,4.919.527q.843,0,1.757-.07a6.379,6.379,0,0,0,1.616-.316,3.282,3.282,0,0,0,1.159-.668,1.456,1.456,0,0,0,.457-1.124,1.463,1.463,0,0,0-.913-1.37A12.8,12.8,0,0,0-83.75-14.2Zm25.218-21.712a23.684,23.684,0,0,1,3.057-.492q1.511-.141,2.916-.141,1.335,0,2.881.141a21.388,21.388,0,0,1,3.021.492v12.367h10.4V-37.245a23.685,23.685,0,0,1,3.057-.492q1.511-.141,2.916-.141,1.335,0,2.881.141a21.389,21.389,0,0,1,3.021.492V-.987q-1.827.281-3.3.422t-2.67.141q-1.195,0-2.67-.141t-3.232-.422V-14.338h-10.4V-.987q-1.827.281-3.3.422t-2.67.141q-1.195,0-2.67-.141t-3.232-.422Z" transform="translate(347.736 93.275)" fill="url(#linear-gradient)"/>
      <path id="路径_2184" data-name="路径 2184" d="M6.046-3.613c.221.382.8.161,1.185-.221v.482c0,1.406.321,1.748,1.527,1.748H9.783c1.226,0,1.507-.342,1.507-1.748V-7.33c0-1.527-.3-1.949-1.507-1.949H8.758c-1.206,0-1.527.422-1.527,1.949V-5.04c-.422-.623-.964-1.366-1.386-1.869a.5.5,0,0,0-.643-.04V-8.656H6.448c.8,0,.8-2.029,0-2.029H5.2V-13.76c0-.743-1.949-.743-1.949,0v3.074H1.525c-.8,0-.8,2.029,0,2.029H3.132A26.363,26.363,0,0,1,.641-3.131c-.482.743.824,2.512,1.306,1.768A17.759,17.759,0,0,0,3.253-4.055V3.339c0,.764,1.949.764,1.949,0V-4.919C5.523-4.457,5.825-4,6.046-3.613ZM17.6-.419c.3.563,1.728-.342,1.406-.884-.482-.824-1.025-1.708-1.587-2.572a21.556,21.556,0,0,0,1.206-3.094c.161-.7.482-2.21-.985-2.21H14.806L18-11.188a1.26,1.26,0,0,0-.864-2.23H8.4c-.8,0-.8,2.009,0,2.009h6.269c.5,0,.522-.02.06.281l-.764.482C12.174-9.561,12.154-9.5,12.154-7.411v5.505c0,.643-.221,1.125-1.768.9l-.422-.04c-.683-.1-.3,1.607.4,1.668l.5.02c1.909.141,2.672-.181,2.933-1,.342.3.784.482,1.025.221a14.743,14.743,0,0,0,1.688-2.15C16.9-1.644,17.277-1.041,17.6-.419Zm1.045,3.556c.723,0,.723-1.828,0-1.828H6.769c-.723,0-.723,1.828,0,1.828ZM13.922-7.913c0-.643.02-.764.583-1.065l.04-.02c-.382.442-.241,1.668.342,1.668h1.567c.5,0,.5,0,.362.5a9.473,9.473,0,0,1-.482,1.386l-.864-1.125c-.362-.462-1.708.4-1.326.884.462.583.884,1.206,1.346,1.848a14.54,14.54,0,0,1-1.567,2.09ZM8.758-7.33H9.783v3.978H8.758ZM39.138.184c.643.542,1.869-1.226,1.206-1.768a36.027,36.027,0,0,0-4.1-2.833h1.728C39.66-4.417,40-4.759,40-6.145V-7.853c0-1.366-.422-1.728-2.029-1.728H35.461v-1.125h4.6c.743,0,.743-1.909,0-1.909h-4.6V-13.76c0-.844-2.17-.844-2.17,0v1.145H28.75c-.764,0-.764,1.909,0,1.909h4.541v1.125H30.839c-1.627,0-2.029.362-2.029,1.728v1.708c0,1.386.4,1.728,2.029,1.728h1.748a15.3,15.3,0,0,1-4.28,2.933C27.484-1.1,28.77.727,29.574.3a16.738,16.738,0,0,0,3.717-2.773V.285c0,.864,2.17.864,2.17,0V-2.448A35.153,35.153,0,0,1,39.138.184ZM27.323-5.663c0-1.668-.422-2.09-2.11-2.09H23.466c-.8,0-.8,2.09,0,2.09h1.246c.5,0,.5,0,.5.5v4.018c0,.482,0,.522-.382.844L23.1,1.249c-.643.583.382,2.632,1,2.009.2-.161,1.708-1.648,2.19-2.13,1.507,1.828,2.853,2.19,5.626,2.19h8.559c.8,0,1.266-2.049.462-2.049h-8.68c-2.512,0-3.8-.462-4.661-1.708a1.139,1.139,0,0,1-.281-.924ZM25.716-9.42c.422.784,2.391-.3,1.969-1.085a27.321,27.321,0,0,0-1.949-3.074c-.542-.7-2.471.422-1.929,1.105A22.844,22.844,0,0,1,25.716-9.42ZM37.47-7.853c.5,0,.5,0,.5.5v.7c0,.5,0,.5-.5.5H35.461V-7.853Zm-6.63.5c0-.5,0-.5.5-.5h1.949v1.708H31.342c-.5,0-.5,0-.5-.5Zm22.724,2.13c-1.768,0-2.21.362-2.21,1.869V1.37c0,1.467.442,1.848,2.21,1.848h5.907c1.828,0,2.21-.382,2.21-1.848V-3.352c0-1.507-.442-1.869-2.21-1.869Zm9.263-1.125c.743,0,.743-1.929,0-1.929H60.094v-1.848h2.13c.723,0,.723-1.889,0-1.889h-2.13V-13.72c0-.844-2.15-.844-2.15,0v1.708H55.03V-13.72c0-.844-2.11-.844-2.11,0v1.708H51.092c-.723,0-.723,1.889,0,1.889h1.828v1.848H50.429c-.764,0-.764,1.929,0,1.929ZM47.174,3.218c0,.8,2.09.8,2.09,0v-13c.462-1.165.884-2.371,1.266-3.637.221-.824-1.929-1.306-2.15-.462a29.353,29.353,0,0,1-3.516,7.8c-.482.743.864,2.491,1.406,1.788l.9-1.346ZM53.564-2.85c0-.5,0-.5.5-.5h4.9c.5,0,.5,0,.5.5v.944H53.564Zm.5,4.219c-.5,0-.5,0-.5-.5V-.077h5.907V.867c0,.5,0,.5-.5.5Zm.964-11.493h2.913v1.848H55.03ZM71.767-7.129c-1.768,0-2.19.3-2.19,1.427V-.941c0,1.125.422,1.386,2.19,1.386h2.25c-1.768.583-4.32,1.366-6.148,1.748-.663.161-.08,1.869.583,1.708A48.751,48.751,0,0,0,74.64,2.093c.623-.221.141-1.487-.382-1.648h3.818c-.462.3-.844,1.487-.221,1.607a40.882,40.882,0,0,1,6.309,1.768c.643.261,1.226-1.447.563-1.728A46.215,46.215,0,0,0,78.679.445h2.09c1.828,0,2.21-.261,2.21-1.386V-5.7a1.334,1.334,0,0,0-.321-1.025c.964-.06,1.587-.482,2.331-2.029.342-.663-1.326-1.467-1.648-.824-.422.9-.563,1.125-.964,1.145a3.024,3.024,0,0,1-1.607-.522,7.277,7.277,0,0,1-1.346-1.125l5.465-.563c.663-.06.462-1.788-.2-1.728l-2.291.241c.221-.342.342-.764.04-.944a15.988,15.988,0,0,0-2.09-1.326c-.583-.321-1.547,1.065-.985,1.366.482.3,1.105.663,1.648,1.045l-2.773.3a13.513,13.513,0,0,1-.985-2.451c-.221-.743-2.19-.382-1.969.382a21.359,21.359,0,0,0,.9,2.27l-3.054.321c-.663.06-.482,1.788.181,1.728l3.818-.4a8.28,8.28,0,0,0,2.351,2.23,9.585,9.585,0,0,0,.884.482Zm-4.32-2.853c-.743.422.1,2.431.784,1.949.7-.462,1.346-.944,1.969-1.447v1.627c0,.8,2.09.8,2.09,0v-3.617a21.182,21.182,0,0,0,1.366-1.708c.462-.623-1.306-1.587-1.728-.944A18.6,18.6,0,0,1,67.447-9.982ZM72.27-.941c-.5,0-.5,0-.5-.5V-1.7h9v.261c0,.5,0,.5-.5.5Zm-.5-2.773h9v.723h-9Zm0-1.487c0-.5,0-.5.5-.5h8c.5,0,.5,0,.5.5v.221h-9Z" transform="translate(6.128 113.986)" fill="#413f9a"/>
      <path id="路径_2182" data-name="路径 2182" d="M-88.16-16.14a15.556,15.556,0,0,1-8.224-2.369,15.69,15.69,0,0,1-5.81-5.587l-9.341.8a1.673,1.673,0,0,1-1.318-.38,1.73,1.73,0,0,1-.425-1.274q0-1.475,1.832-1.654l8.045-.715a13.257,13.257,0,0,1-.626-3.575,1.561,1.561,0,0,1,1.788-1.743,1.65,1.65,0,0,1,1.52.715,12.039,12.039,0,0,1,.626,3.263l.223,1.028,12.737-1.162a1.994,1.994,0,0,1,1.475.313,1.415,1.415,0,0,1,.492,1.162q0,1.654-2.056,1.832L-98.35-24.5a10.987,10.987,0,0,0,3.218,2.905,12.7,12.7,0,0,0,6.123,2.145q1.028,0,1.475-2.547A1.688,1.688,0,0,1-87-23a1.772,1.772,0,0,1,1.162-.335q1.788,0,1.788,1.654Q-84.049-16.14-88.16-16.14Zm-4.156-12.514a3.952,3.952,0,0,1-2.235-1.073q-1.385-1.117-1.385-1.654,0-1.251,1.877-1.251a4.085,4.085,0,0,1,2.279.939q1.385.983,1.385,1.654Q-90.395-28.654-92.317-28.654Zm-25.341,11.71q-1.788,0-1.788-1.922v-4.425q-2.86,2.86-3.888,2.86a1.383,1.383,0,0,1-1.564-1.564q0-.626,1.073-1.564a34.749,34.749,0,0,0,6.749-7.553,2.425,2.425,0,0,1,2.011-1.251q1.743,0,1.743,1.43a3.007,3.007,0,0,1-.626,1.475,24.568,24.568,0,0,1-1.922,2.413v8.179Q-115.87-16.945-117.658-16.945Zm1.251,19.263a4.328,4.328,0,0,1-3.106-.939,3.509,3.509,0,0,1-.782-2.95V-12.475q-.313-4.067,3.888-3.933h23.821a4.345,4.345,0,0,1,3.128.961,3.529,3.529,0,0,1,.8,2.972V-1.57q.358,4.022-3.933,3.888Zm24.045-14.7A1.21,1.21,0,0,0-93.7-13.727h-21.587q-1.251,0-1.341,1.341v1.43h24.268Zm0,6.659V-8.5H-116.63v2.771ZM-93.7-.364q1.3,0,1.341-1.385v-1.52H-116.63v1.52a1.256,1.256,0,0,0,1.341,1.385Zm-28.961,8.536q-2.056,0-2.056-1.788,0-1.3,2.682-1.475a54.561,54.561,0,0,0,6.168-.983l5.363-1.207q1.832,0,1.832,1.7,0,1.028-1.385,1.43Q-118.283,8.173-122.663,8.173Zm31.777-.536A31.032,31.032,0,0,1-97.658,6.3Q-100,5.447-100,4.463q0-1.654,1.788-1.654l.581.089A78.994,78.994,0,0,0-86.06,4.866Q-84.227,5-84.227,6.43A1.541,1.541,0,0,1-85.97,8.173Zm16.232-.223q-1.7,0-1.7-1.966,0-1.117,2.86-2.011A14.173,14.173,0,0,0-68.352.8a10.262,10.262,0,0,0,3.128-4.2,24.442,24.442,0,0,0,1.251-7.24h-9.967q-2.145,0-2.145-1.654,0-1.609,2.145-1.609H-57.76v-8.715h-9.52l-.492.849a19.6,19.6,0,0,1-2.257,3.732q-1.05,1.274-1.81,1.274a1.541,1.541,0,0,1-1.743-1.743,3.965,3.965,0,0,1,.983-1.877,34.132,34.132,0,0,0,4.514-9.162,2.952,2.952,0,0,1,.715-1.274,1.559,1.559,0,0,1,1.117-.425,2.329,2.329,0,0,1,1.363.313,1.192,1.192,0,0,1,.425,1.028,20.685,20.685,0,0,1-1.385,4.022h8.089v-4.425q0-2.19,1.654-2.19a1.569,1.569,0,0,1,1.341.536,2.758,2.758,0,0,1,.4,1.654v4.425h11.531q2.056,0,2.056,1.654,0,1.609-2.056,1.609H-54.364v8.715h15.508q2.056,0,2.056,1.609a1.523,1.523,0,0,1-.492,1.251,2.461,2.461,0,0,1-1.564.4H-50.431V1.2a1.9,1.9,0,0,0,.715,1.743q.76.447,4.291.447a18.6,18.6,0,0,0,2.659-.156A6.364,6.364,0,0,0-41.313,2.9a1.572,1.572,0,0,0,.8-1.117,9.531,9.531,0,0,0,.223-2.324q0-2.1,1.832-2.1,1.966,0,1.966,2.413,0,5.14-2.726,6.346-1.341.581-7.374.581-5.095,0-6.078-.849A3.963,3.963,0,0,1-53.827,2.81V-10.643h-6.749a22.707,22.707,0,0,1-2.1,9.922,14.06,14.06,0,0,1-5.676,5.9Q-72.2,7.413-74.654,7.413Zm84.3-4.291q2.1,0,2.1,1.7t-2.1,1.7H-26.2q-2.145,0-2.145-1.7t2.145-1.7H-9.3V-7.738H-20.075q-2.1,0-2.1-1.7,0-1.654,2.1-1.654H-9.3V-20.3h-10.86A42.093,42.093,0,0,1-23.7-11.224a9.944,9.944,0,0,1-1.676,2.369,2.306,2.306,0,0,1-1.5.8A1.742,1.742,0,0,1-28.187-8.5a2.026,2.026,0,0,1-.425-1.43,5.181,5.181,0,0,1,.939-2.145q3.352-5.453,5.587-16.224.4-2.011,1.966-2.011,1.877,0,1.877,1.43l-.134,1.162-.894,4.022H-9.3v-6.525q0-2.1,1.877-2.1,1.832,0,1.832,2.1v6.525H7.813q2.145,0,2.145,1.7T7.813-20.3H-5.595v9.207H5.623q2.1,0,2.1,1.654,0,1.7-2.1,1.7H-5.595V3.122Z" transform="translate(307.442 32.632)" fill="#e1494c" stroke="#e1494c" stroke-width="1"/>
    </g>
    <g id="组_891" data-name="组 891" transform="translate(118.978 293.695)">
      <g id="组_296" data-name="组 296" transform="translate(6.683 24.028) rotate(7)">
        <path id="路径_70" data-name="路径 70" d="M75.387,38.24S66.192,51.533,53.181,54.364,35.926,46.725,31.822,42.483c-3.108-3.217-6.459-3.182-12.392-4.149-1.893-.307-4.06-.719-6.558-1.368a16.1,16.1,0,0,1-9.368-7.2A26.774,26.774,0,0,1,0,21.407s11.173-.565,20.65-.848S33.939,13.411,41.295,6.9,67.559-3.637,74.1,4.7C75.521,9.089,75.387,38.24,75.387,38.24Z" transform="translate(0 0)" fill="url(#linear-gradient-2)"/>
        <path id="路径_71" data-name="路径 71" d="M69.992,38.984S68.214,8.212,65.9,4.477C57.087-9.762,34.134,14.517,34.122,14.526s-3.068,4.734-11.51,7.42C15.579,24.182,3.752,26.6,0,27.344a16.1,16.1,0,0,0,9.368,7.2c2.5.649,4.664,1.061,6.558,1.368,3.96-.595,10.082-.793,12.694-4.243,2.565-3.384,11.449-13.827,18.039-20.673.971.644,2.163,1.211,1.087,5.09C42.164,36.2,40.919,39.265,41.837,43.839c.736,3.669,3.805,7.163,7.545,7.039A4.749,4.749,0,0,0,52.4,49.749a6.246,6.246,0,0,0,1.588-2.706c2.164-6.386.057-13.464,1.263-20.1a116.852,116.852,0,0,0,3.458-14.066c.578.055,1.194.128,1.853.225,9.694,1.423,5.247,28.637,5.247,28.637Z" transform="translate(3.504 2.425)" fill="url(#linear-gradient-3)"/>
      </g>
      <g id="组_300" data-name="组 300" transform="matrix(1, -0.017, 0.017, 1, 46.615, 67.278)">
        <path id="路径_1163" data-name="路径 1163" d="M.245,20.553,0,56.524l2.435-.085L18.847,34.881s8.706,3.6,15.028.058L42.63,54.95l2.054-.071s3.8-31.94,2.566-37.17S36.433,0,36.433,0Z" transform="matrix(0.999, 0.035, -0.035, 0.999, 4.284, 0)" fill="url(#linear-gradient-4)"/>
        <path id="路径_1164" data-name="路径 1164" d="M2.2.092S-.329,2.684.036,3.355,4.585,3.2,4.585,3.2L4.83,0Z" transform="translate(0.189 55.747) rotate(3)" fill="url(#linear-gradient-5)"/>
        <path id="路径_1165" data-name="路径 1165" d="M.045.077S-.11,2.986.155,3.233s4.893.751,4.7.169A30.1,30.1,0,0,0,2.263,0Z" transform="translate(44.886 56.285)" fill="url(#linear-gradient-5)"/>
      </g>
      <g id="body" transform="translate(27.903 31.855)">
        <path id="body-2" data-name="body" d="M38.07,78.924c-2.984,0-20.052-2.965-22.253-3.5a2.051,2.051,0,0,1-1.285-.689,1.882,1.882,0,0,1-.146-1.29l4.557-39.5a2.314,2.314,0,0,0-.051-1.129,1.49,1.49,0,0,0-1.563-.848,6.017,6.017,0,0,0-2.161.488c-3.862,1.59-7.922.894-12.105,1.343a8.218,8.218,0,0,1-.859.056,2.5,2.5,0,0,1-1.39-.335,2.215,2.215,0,0,1-.388-3.049,7.268,7.268,0,0,1,2.458-2.034l.018-.011.223-.136c6.2-3.81,11.17-8.543,13.781-14.3.8-1.233,4.664-9.1,8.077-9.56,6.337-.717,8.916,17.317,8.92,17.445.006.161,15.445,10.821,15.663,10.939l6.524-10.939L50.444,0c5.32.9,8.3,5.785,20.707,9.59,5.076.413,5.868-.467,7.94-1.469.242-.116.484-.243.718-.366.726-.379.986-.772,1.806-.916a3.132,3.132,0,0,1,.543-.047,2.987,2.987,0,0,1,1.352.311,1.751,1.751,0,0,1,.873.934,2.962,2.962,0,0,1-.559,2.427A31.393,31.393,0,0,1,76.647,18.8c-2.917,2.394-7.649,3.282-11.18,4.562,7.574,6.382,11.042,19.218,10.566,27.6a28.865,28.865,0,0,1-3.664,12.427,28.568,28.568,0,0,1-3.858,5.326,27.13,27.13,0,0,1-5.057,4.313,33.664,33.664,0,0,1-12.155,4.8,66.922,66.922,0,0,1-13.229,1.1Z" transform="translate(0 0)" fill="#2b2781"/>
        <g id="组_873" data-name="组 873" transform="translate(16.441 22.826)">
          <path id="路径_2166" data-name="路径 2166" d="M1.156,51.466C.743,51.358-.049,44.195,0,43.764L3.144,11.1C3.182,10.77,7.476,2.14,9.4.722,27.495,2.138,31.264-3.083,44.309,3.1c7.7,5.725,9.3,15.071,8.888,22.716A27.468,27.468,0,0,1,50.04,37.155a26.127,26.127,0,0,1-3.324,4.858,23.813,23.813,0,0,1-4.358,3.933,28.119,28.119,0,0,1-10.476,4.376,54.586,54.586,0,0,1-11.4,1.006C17.912,51.328,3.054,51.958,1.156,51.466Z" transform="translate(2.703 0) rotate(3)" fill="url(#radial-gradient)"/>
          <path id="路径_2149" data-name="路径 2149" d="M1.058,44.153l3.179-.6C20.6,42.352,29.131,31.408,30.8,20.319q.158-1.057.228-2.11c.422-6.424-3.164-18.61-12.3-18.2C15.2.169,11.574,2.534,8.578,7.042,18.305,3.658,24.045,8.76,24.045,8.76,10.82,18.186,5.126,29.952,2.8,39.753h0q-.069.289-.133.576v0C2.01,43.234.18,42.618,0,45.04" transform="translate(21.574 10.801)" fill="#35328d" fill-rule="evenodd"/>
          <path id="路径_2158" data-name="路径 2158" d="M0,53.1l3.134-1.837,5.133-.63c15.567-7.8,16.713-7.063,23.354-18.169.005-.034,1.634-6.815,1.666-7.021.107-.7.484-2.924.532-3.652C33.685,14.182,30.994,4.129,20.87.706.495-2.872,5.481,8.006,3.789,14.167c13.947-4.482,17.444.853,17.444.853C5.416,27.434,5.394,34.659,2.194,45.674" transform="translate(27.991 3.281) rotate(7)" fill-rule="evenodd" fill="url(#radial-gradient-2)"/>
          <path id="路径_2157" data-name="路径 2157" d="M1.288,38.881c-.308,0-.652-2.884-.839-4.356a46.261,46.261,0,0,1,0-12.9,27.3,27.3,0,0,1,2.5-8.7,14.485,14.485,0,0,1,3.062-4.2,6.8,6.8,0,0,1,1.494-1.09C3.575,8.96,14.261,0,16.36,0a12.9,12.9,0,0,1,5.917,1.412A3.867,3.867,0,0,1,24.2,3.077C12.655,10.907,12.088,11.89,8.391,17.758c-3.007,4.772-2.577,9.988-4.808,15.7A45.261,45.261,0,0,0,1.288,38.881Z" transform="matrix(0.996, 0.087, -0.087, 0.996, 23.615, 15.772)" opacity="0.722" fill="url(#radial-gradient-3)"/>
          <path id="路径_2165" data-name="路径 2165" d="M3.245,25.824c.3-6.389,1.767-10.078,4.568-11.9s3.91-1.708,3.91-1.708-4.1,4.379-4.954,7.327a34.456,34.456,0,0,0-1.574,8.734c-.3,4.161.919,15.144.919,15.144S2.943,32.213,3.245,25.824ZM.937,12.213C2.652,3.8,7.813,0,7.813,0s1.6,13.786-1.754,15.456S.387,22.162.387,22.162-.779,20.627.937,12.213Z" transform="translate(15.625 12.221)" fill="#2e2b82" opacity="0.799"/>
          <path id="路径_2156" data-name="路径 2156" d="M4.35,49.4c-.308,0-.652-2.884-.839-4.356a46.26,46.26,0,0,1,0-12.9,27.3,27.3,0,0,1,2.5-8.7,14.485,14.485,0,0,1,3.062-4.2,6.8,6.8,0,0,1,1.494-1.09c-3.931,1.324-6.4,2.674-7.931,4.283A20.585,20.585,0,0,0,.073,25.688,34.563,34.563,0,0,1,.93,15.251c.642-2.769,3.818-6.038,5.081-8.341,3.628-3.187,6.3-5.725,6.912-5.725,2.89,0,9.187-2.666,7.1,0,.025.865-4.841,2.959-7.1,10.5a19.805,19.805,0,0,1,6.5-1.159,15.715,15.715,0,0,1,6.634,1.439A10.7,10.7,0,0,1,28.39,13.4,54.736,54.736,0,0,0,13.681,28.754c-3.007,4.772-4.805,9.513-7.037,15.229A45.261,45.261,0,0,0,4.35,49.4Z" transform="translate(17.229 6.163)" fill="#7774d5"/>
          <path id="路径_2162" data-name="路径 2162" d="M3.681,43.114c-.485.175-.7-3.413-.577-5.315.444-6.4.5-7.091.94-10.379a21.94,21.94,0,0,1,2.538-6.386,18.1,18.1,0,0,1,3.585-4.174,30.284,30.284,0,0,0-5.073,2.8C3.577,20.467.006,24.562,0,24.573.216,15.816.527,14.924,1.635,11.4,3.533,4.428,12.116-.137,13.559.113c2.685-.312,1.64.024,5.423.95C14.694,2.943,9.072,8.17,9.76,13.844c4.159-2.256,10.793-3.105,12.285-2.444a40.745,40.745,0,0,0-9.808,10.364C9.573,26.37,9.455,25.924,6.582,33.692A36.687,36.687,0,0,0,3.681,43.114Z" transform="translate(17.244 7.596)" fill="url(#radial-gradient-4)"/>
          <path id="路径_2163" data-name="路径 2163" d="M.142,18.4c-.628,15.269.993-1.6,1.581-2.148S2.249,3.184,3.908.631.771,3.129.142,18.4Z" transform="translate(17.101 14.011)" fill="none"/>
        </g>
      </g>
      <g id="组_293" data-name="组 293" transform="translate(116.867 40.841) rotate(163)">
        <path id="路径_1184" data-name="路径 1184" d="M4.254,2.883A16.3,16.3,0,0,1,3.7.833C3.495.149,2.033-.151,1.516.074s-.041,1.256-.426,1.4S.179.185.025,1.032A3.339,3.339,0,0,0,.867,3.266C1.9,3.177,3.4,3.463,4.254,2.883Z" transform="translate(2.191 8.199) rotate(-121)" fill="url(#linear-gradient-7)"/>
        <path id="路径_68" data-name="路径 68" d="M2.862,5.857A25.161,25.161,0,0,1,0,3.431,13.078,13.078,0,0,1,2.638,0,17,17,0,0,1,5.947,3.905C4.92,4.559,3.887,5.2,2.862,5.857Z" transform="translate(1.965 0)" fill="url(#linear-gradient-8)"/>
        <path id="路径_69" data-name="路径 69" d="M.12.221A.694.694,0,0,1,.983.1a.436.436,0,0,1,.138.7A.694.694,0,0,1,.265.931.447.447,0,0,1,.12.221Z" transform="translate(4.645 4.008)" fill="url(#linear-gradient-9)"/>
      </g>
      <g id="组_294" data-name="组 294" transform="matrix(-0.755, 0.656, -0.656, -0.755, 34.358, 64.319)">
        <path id="路径_1185" data-name="路径 1185" d="M3.16,0a21.962,21.962,0,0,0,1.5,2.281c.48.784-.44,2.367-1.081,2.639S2.349,3.863,1.891,4.085s.479,1.947-.456,1.349S.314,3.7,0,2.729C.936,1.874,1.9.267,3.16,0Z" transform="matrix(0.966, -0.259, 0.259, 0.966, 3.464, 3.896)" fill="url(#linear-gradient-10)"/>
        <path id="路径_116" data-name="路径 116" d="M4.246,6.874A30.451,30.451,0,0,0,6.74,3.082,15.817,15.817,0,0,0,2.508,0,20.557,20.557,0,0,0,0,5.661C1.414,6.069,2.832,6.464,4.246,6.874Z" transform="translate(0 0)" fill="url(#linear-gradient-11)"/>
        <path id="路径_117" data-name="路径 117" d="M1.231.121A.839.839,0,0,0,.187.27a.528.528,0,0,0,.079.863A.84.84,0,0,0,1.305.994.54.54,0,0,0,1.231.121Z" transform="translate(2.532 4.842)" fill="url(#linear-gradient-9)"/>
      </g>
      <path id="路径_2167" data-name="路径 2167" d="M19.036,5.153,28.108,0,29,14.681l-6.56,11.1S2.275,11.365,2.269,11.195,0,1.613,0,1.613Z" transform="translate(54.311 38.89)" fill="url(#linear-gradient-13)"/>
      <g id="组_876" data-name="组 876" transform="translate(69.034 30.579)">
        <g id="tie" transform="translate(0 11.137)">
          <path id="路径_80" data-name="路径 80" d="M0,1.159A77.518,77.518,0,0,1,.088,14.733l4.653,3.646,3.642-5.8L4,.339C2.119-.107,1.433-.348,0,1.159Z" transform="translate(3.422 4.939)" fill="url(#linear-gradient-14)"/>
          <g id="组_30" data-name="组 30" transform="translate(0 0)">
            <path id="路径_81" data-name="路径 81" d="M7.683,5.207,3.22,6.27C1.484,4.144,1.589,4.483.795,2.773.606,2.347.356,1.8,0,1.043c0,0,.428-.048,3.355-.705A1.835,1.835,0,0,1,3.7.29C3.837.27,3.973.27,4.119.261c.23-.01.47-.01.722-.02A5.767,5.767,0,0,0,6.586,0a.343.343,0,0,0,.041.106c.324.976.565,1.71.742,2.261A4.716,4.716,0,0,1,7.683,5.207Z" fill="url(#linear-gradient-15)"/>
            <path id="路径_82" data-name="路径 82" d="M7.37,2.261a16.2,16.2,0,0,0-6.575.406C.606,2.242.356,1.691,0,.937,0,.937.428.889,3.355.232A1.835,1.835,0,0,1,3.7.184c.136-.019.272-.019.418-.029.23-.01.47-.01.722-.019A10.419,10.419,0,0,0,6.627,0C6.951.976,7.192,1.71,7.37,2.261Z" transform="translate(0 0.106)" fill="url(#linear-gradient-16)"/>
          </g>
        </g>
        <g id="右領" transform="translate(8.143 1.511)">
          <path id="路径_1176" data-name="路径 1176" d="M4.49,26.306C.5,29.405,0,28.557,0,28.557L1.006,27.5c1.456-2.041,2.873-.045,2.9-5.114A164.1,164.1,0,0,0,2.423,2.45C3.541,1.109,4.49,0,4.49,0S17.505,13.406,4.49,26.306Z" transform="translate(0.032 4.316)" fill="#2e2c81"/>
          <g transform="matrix(1, 0, 0, 1, -134.59, -48.09)" filter="url(#路径_1177)">
            <path id="路径_1177-2" data-name="路径 1177" d="M.244,0S6.023,21.281,0,32.945c0,0,6.721-3.991,7.246-11.726L5.539,19.576l2.626-1.164S8.248,5.927,5.138,3.469Z" transform="translate(134.59 48.09)" fill="url(#linear-gradient-17)"/>
          </g>
        </g>
        <path id="路径_1171" data-name="路径 1171" d="M2.949,0S8.569,5.139,0,11.482c3.8.45,6.677,1.625,8.856,3.994,0,0,.928-9.556.8-9.922S6.636.487,6.636.487Z" transform="translate(4.775 0) rotate(3)" fill="url(#linear-gradient-18)"/>
      </g>
      <g id="左領" transform="translate(51.874 35.193)">
        <path id="路径_1174" data-name="路径 1174" d="M25.68,28.83C-3.844,24.079.185,2.188.185,2.188A10.767,10.767,0,0,1,1.256,0c.032-.04,1.89,3.791,2.376,4.112,0,0,1.023,1.192,1.033,1.192,4.849,6.845,6.653,9.253,12.373,16.668,1.138,1.475,2.483,2.336,3.274,3.355a15.507,15.507,0,0,0,1.76,1.457S23.249,27.393,25.68,28.83Z" transform="translate(0 1.093)" fill="#383496"/>
        <path id="路径_1175" data-name="路径 1175" d="M0,1.153s1.886,10.253,4.421,15.6l3.3.1L6.07,18.761s5.994,6.879,18.419,11.081c-.077-.175-.526-.385-1.129-.861-1.36-1.09-1.249-.883-3.695-3.035C9.051,12.992,7.979,11.757,3.393,0Z" transform="translate(0.898 0)" fill="url(#linear-gradient)"/>
      </g>
      <path id="路径_2168" data-name="路径 2168" d="M19.112,11.91c-2.192,1.057-3.927,2.316-7.136,6.442,0,0-12.467-10.333-11.961-12.584.045-.176.1-.373.168-.581A24.023,24.023,0,0,1,2.861,0C4.534,6.4,14.466,11.532,19.112,11.91Z" transform="translate(54.119 30.165)" fill="url(#linear-gradient-20)"/>
      <g id="head" transform="matrix(0.999, 0.052, -0.052, 0.999, 51.771, 0)">
        <path id="ear" d="M1.941.915S.3-.654.055.317s.322,3.72,2.192,4.339S1.941.915,1.941.915Z" transform="translate(4.412 20.813)" fill="#ff8852"/>
        <path id="路径_1189" data-name="路径 1189" d="M9.4.64S20.175,7.469,23.631,19.3c-3.142,15.117-10.99,13.281-22.9,1.617L0,9.717S.532,1.179,2.459.315,9.4.64,9.4.64Z" transform="translate(6.353 11.064)" fill="#fcb5a4"/>
        <g id="face" transform="translate(10.126 14.54)">
          <path id="路径_1191" data-name="路径 1191" d="M.164,3.683A33.946,33.946,0,0,0,3.37,1.39c.017-.2-.5-1.661-.98-1.346A22.07,22.07,0,0,0,.014,2.869C-.019,2.968,0,3.666.164,3.683Z" transform="translate(0 0.765)" fill="#a85f45"/>
          <path id="路径_1192" data-name="路径 1192" d="M0,.1s.332,1.312.532,1.4,3.073.947,3.173.731-.3-.748-.365-.83S-.139-.418,0,.1Z" transform="translate(6.19 0)" fill="#a85f45"/>
          <path id="路径_1193" data-name="路径 1193" d="M.377.132S4.962,5.066,5.012,5.614s-2.891,1.5-3.289,1.022S0,.63,0,.63-.064-.346.377.132Z" transform="translate(5.376 2.771)" fill="#ff8852"/>
          <ellipse id="椭圆_34" data-name="椭圆 34" cx="0.872" cy="0.897" rx="0.872" ry="0.897" transform="translate(2.39 5.12)" fill="#242424"/>
          <ellipse id="椭圆_35" data-name="椭圆 35" cx="0.872" cy="0.897" rx="0.872" ry="0.897" transform="translate(8.768 3.949)" fill="#242424"/>
          <path id="路径_1195" data-name="路径 1195" d="M0,.224s3.351,4.61,4.989,3.663S7.2,0,7.2,0A15,15,0,0,1,0,.224Z" transform="translate(3.062 11.225)" fill="#fff"/>
        </g>
        <g id="hair" transform="translate(0 1.761) rotate(-5)">
          <path id="路径_101" data-name="路径 101" d="M19.95,6.932A12.757,12.757,0,0,1,16.518,12.6c-.225-.419-.191-1-2.123-1.087-2.382-.1-8.38,3.344-8.9,3.647a.408.408,0,0,1-.039.023s.256.085.675,2.2a3.554,3.554,0,0,1-.784,3.235s-1.66.411-4.469-3.212,1.769-7.743,4.26-8.4S6.6,6.078,7.272,3.789s6.13-5.9,11.126-2.2C20.3,3.006,20.47,5.008,19.95,6.932Z" transform="translate(0 0)" fill="#872812"/>
          <path id="路径_102" data-name="路径 102" d="M14.856,1.583a15.324,15.324,0,0,1-3.321,5.972A4.865,4.865,0,0,0,9.3,6.169C6.919,6.068.921,9.513.4,9.816c-1.04-.737.178-1.979.978-2.359C2.643,6.859,4.017,6.5,5.227,5.8c2.7-1.552,4.376-4.686,7.324-5.7a1.205,1.205,0,0,1,.659-.093A1.327,1.327,0,0,1,13.7.264,4.384,4.384,0,0,1,14.856,1.583Z" transform="translate(5.094 5.349)" fill="url(#linear-gradient-21)"/>
        </g>
      </g>
    </g>
  </g>
</svg>
