<svg xmlns="http://www.w3.org/2000/svg" xmlns:xlink="http://www.w3.org/1999/xlink" width="136" height="136" viewBox="0 0 136 136">
  <defs>
    <linearGradient id="linear-gradient" x1="0.5" x2="1.146" y2="1.096" gradientUnits="objectBoundingBox">
      <stop offset="0" stop-color="#6ce1ee"/>
      <stop offset="1" stop-color="#01de7e"/>
    </linearGradient>
    <linearGradient id="linear-gradient-2" x1="0.134" y1="0.134" x2="0.866" y2="0.866" gradientUnits="objectBoundingBox">
      <stop offset="0" stop-color="#f9d8a4"/>
      <stop offset="1" stop-color="#f2a11a"/>
    </linearGradient>
  </defs>
  <g id="f1_c" transform="translate(-7439 5482)">
    <g id="椭圆_281" data-name="椭圆 281" transform="translate(7439 -5482)" fill="none" stroke="#fff8e6" stroke-width="5">
      <circle cx="68" cy="68" r="68" stroke="none"/>
      <circle cx="68" cy="68" r="65.5" fill="none"/>
    </g>
    <g id="组_17064" data-name="组 17064" transform="translate(0.888 -1.612)">
      <rect id="矩形_3583" data-name="矩形 3583" width="66.411" height="60.877" rx="3" transform="translate(7476.094 -5437.872)" fill="rgba(241,164,36,0.4)"/>
      <path id="矩形_3582" data-name="矩形 3582" d="M0,0H66.411a0,0,0,0,1,0,0V57.877a3,3,0,0,1-3,3H3a3,3,0,0,1-3-3V0A0,0,0,0,1,0,0Z" transform="translate(7472.159 -5441.807)" fill="#fff"/>
      <path id="路径_32838" data-name="路径 32838" d="M571.429,719.819H637.84v-2.767a2.767,2.767,0,0,0-2.767-2.767H574.2a2.767,2.767,0,0,0-2.767,2.767Z" transform="translate(6900.729 -6161.626)" fill="#f1a424"/>
      <path id="路径_32944" data-name="路径 32944" d="M-303.556-318.1a1.383,1.383,0,0,1-.958-1.706,1.383,1.383,0,0,1,1.706-.958,1.385,1.385,0,0,1,.958,1.706,1.385,1.385,0,0,1-1.332,1.01A1.384,1.384,0,0,1-303.556-318.1Zm4.2.012a1.383,1.383,0,0,1-1.017-1.671,1.384,1.384,0,0,1,1.671-1.018,1.383,1.383,0,0,1,1.017,1.671,1.384,1.384,0,0,1-1.344,1.057A1.388,1.388,0,0,1-299.359-318.087Zm3.5-.366a1.384,1.384,0,0,1,0-1.957,1.384,1.384,0,0,1,1.957,0,1.382,1.382,0,0,1,0,1.957,1.379,1.379,0,0,1-.978.4A1.381,1.381,0,0,1-295.86-318.453Z" transform="translate(7826.533 -5125.143)" fill="#fff" stroke="rgba(0,0,0,0)" stroke-width="1"/>
      <g id="组_17061" data-name="组 17061" transform="translate(7479.874 -5433.567)">
        <ellipse id="椭圆_292" data-name="椭圆 292" cx="8.855" cy="8.855" rx="8.855" ry="8.855" transform="translate(0)" fill="url(#linear-gradient)"/>
        <path id="路径_32842" data-name="路径 32842" d="M794.569,976.191l-5.9,5.9-2.952-2.951" transform="translate(-781.287 -970.287)" fill="none" stroke="#fff" stroke-linecap="round" stroke-linejoin="round" stroke-miterlimit="10" stroke-width="2"/>
      </g>
      <g id="组_17062" data-name="组 17062" transform="translate(7479.874 -5408.232)">
        <ellipse id="椭圆_293" data-name="椭圆 293" cx="8.855" cy="8.855" rx="8.855" ry="8.855" transform="translate(0 0)" fill="url(#linear-gradient-2)"/>
        <path id="路径_32843" data-name="路径 32843" d="M795.553,1190.476l-6.559,6.559-3.28-3.279" transform="translate(-781.779 -1184.901)" fill="none" stroke="#fff" stroke-linecap="round" stroke-linejoin="round" stroke-miterlimit="10" stroke-width="2"/>
      </g>
      <path id="路径_32855" data-name="路径 32855" d="M-293.019-155.5v-2.952h17.71v2.952Zm-10.822,0v-2.952h6.886v2.952Zm21.645-6.887v-2.952h6.887v2.952Zm-21.645,0v-2.952h17.71v2.952Z" transform="translate(7806.5 -5264.29)" fill="#2fb8a7"/>
      <path id="路径_32856" data-name="路径 32856" d="M-293.019-155.5v-2.952h17.71v2.952Zm-10.822,0v-2.952h6.886v2.952Zm21.645-6.887v-2.952h6.887v2.952Zm-21.645,0v-2.952h17.71v2.952Z" transform="translate(7806.5 -5238.709)" fill="#abb2b9"/>
      <g id="组_17065" data-name="组 17065" transform="translate(7523.507 -5417.824)">
        <path id="路径_32853" data-name="路径 32853" d="M-300.283-156.469-304-154.615l.014-12.384,9.9,7.442L-297.8-157.7l2.471,4.956-2.478,1.236Z" transform="translate(308.166 167.021)" fill="#dedede" stroke="rgba(0,0,0,0)" stroke-width="1"/>
        <path id="路径_32852" data-name="路径 32852" d="M-300.283-156.469l2.478-1.235,2.471,4.956-2.478,1.236Zm-3.7-10.531,9.9,7.442L-304-154.616Z" transform="translate(304 167)" fill="#b98225" stroke="rgba(0,0,0,0)" stroke-width="1"/>
      </g>
    </g>
  </g>
</svg>
