<svg xmlns="http://www.w3.org/2000/svg" xmlns:xlink="http://www.w3.org/1999/xlink" width="136" height="136" viewBox="0 0 136 136">
  <defs>
    <linearGradient id="linear-gradient" x1="0.34" y1="0.102" x2="1.047" y2="0.809" gradientUnits="objectBoundingBox">
      <stop offset="0" stop-color="#fadbac"/>
      <stop offset="0.226" stop-color="#f9d9a8"/>
      <stop offset="0.407" stop-color="#f9d59e"/>
      <stop offset="0.573" stop-color="#f8cf8d"/>
      <stop offset="0.73" stop-color="#f7c576"/>
      <stop offset="0.879" stop-color="#f5ba57"/>
      <stop offset="1" stop-color="#f4ae39"/>
    </linearGradient>
    <linearGradient id="linear-gradient-2" x1="0.134" y1="0.134" x2="0.866" y2="0.866" gradientUnits="objectBoundingBox">
      <stop offset="0" stop-color="#f9d8a4"/>
      <stop offset="1" stop-color="#f2a11a"/>
    </linearGradient>
    <linearGradient id="linear-gradient-3" x1="0.5" x2="1.146" y2="1.096" gradientUnits="objectBoundingBox">
      <stop offset="0" stop-color="#6ce1ee"/>
      <stop offset="1" stop-color="#01de7e"/>
    </linearGradient>
  </defs>
  <g id="f1_d" transform="translate(-7439 5482)">
    <g id="椭圆_281" data-name="椭圆 281" transform="translate(7439 -5482)" fill="none" stroke="#fff8e6" stroke-width="5">
      <circle cx="68" cy="68" r="68" stroke="none"/>
      <circle cx="68" cy="68" r="65.5" fill="none"/>
    </g>
    <g id="组_17090" data-name="组 17090" transform="translate(7444.125 -5463.066)">
      <g id="组_17088" data-name="组 17088" transform="translate(35.672 21.445)">
        <path id="路径_32897" data-name="路径 32897" d="M57.593,20.15a27.641,27.641,0,0,0-19.731,7.713A27.647,27.647,0,0,0,30.15,47.595a27.652,27.652,0,0,0,7.712,19.731,27.647,27.647,0,0,0,19.731,7.712,27.647,27.647,0,0,0,19.731-7.712,27.652,27.652,0,0,0,7.712-19.731,27.647,27.647,0,0,0-7.712-19.731A27.641,27.641,0,0,0,57.593,20.15Z" transform="translate(-30.15 -20.15)" fill="url(#linear-gradient)"/>
        <path id="路径_32898" data-name="路径 32898" d="M55.981,23.15a23,23,0,0,0-16.415,6.417A23,23,0,0,0,33.15,45.983,23,23,0,0,0,39.566,62.4a23.006,23.006,0,0,0,16.415,6.416A23.006,23.006,0,0,0,72.4,62.4a23,23,0,0,0,6.416-16.415A23,23,0,0,0,72.4,29.567,23,23,0,0,0,55.981,23.15Z" transform="translate(-28.538 -18.538)" fill="url(#linear-gradient-2)"/>
        <path id="路径_32899" data-name="路径 32899" d="M53.561,58.244V62.9H49.129V58.558a18.212,18.212,0,0,1-7.689-1.9L42.8,51.37a15.989,15.989,0,0,0,7.507,1.988,7.714,7.714,0,0,0,1.219-.131c1.891-.288,3.166-1.212,3.166-2.671,0-1.388-1.03-2.362-3.166-3.281-.51-.22-1.027-.438-1.673-.656-4.838-1.627-8.141-3.888-8.141-8.273,0-4.025,2.806-7.148,7.644-8.048V26h4.429V29.98a15.913,15.913,0,0,1,6.6,1.493l-1.356,5.11A14.025,14.025,0,0,0,52.52,35a6.529,6.529,0,0,0-.995.12c-2.1.284-2.893,1.361-2.893,2.457,0,1.072.881,1.9,2.893,2.821.7.323,1.536.66,2.532,1.024,5.429,1.9,7.553,4.385,7.553,8.5C61.611,53.947,58.805,57.339,53.561,58.244Z" transform="translate(-24.082 -17.005)" fill="#fcfdff"/>
      </g>
      <g id="组_17089" data-name="组 17089" transform="translate(19.875 17.74)">
        <path id="路径_32900" data-name="路径 32900" d="M82.052,33.468a29.464,29.464,0,0,0-12.24-12.152c-5.014-2.637-5.764-.206-2.034,3.038A23.951,23.951,0,0,1,75.3,36.27a22.148,22.148,0,0,1-.48,13.03,20.215,20.215,0,0,1-7.129,9.621l-5.295-5.293c-2.288-2.289-4.16-1.513-4.16,1.723V78.718H81.6c3.238,0,4.013-1.873,1.723-4.162L78.03,69.263a33.1,33.1,0,0,0,7.55-17.836A31.329,31.329,0,0,0,82.052,33.468Z" transform="translate(0.741 -16.42)" fill="url(#linear-gradient-3)"/>
        <path id="路径_32901" data-name="路径 32901" d="M22.29,21.9,27.585,27.2a33.093,33.093,0,0,0-7.55,17.836A31.327,31.327,0,0,0,23.563,62.99,29.469,29.469,0,0,0,35.8,75.142c5.014,2.637,5.765.206,2.036-3.038a23.944,23.944,0,0,1-7.52-11.915A22.143,22.143,0,0,1,30.8,47.16a20.212,20.212,0,0,1,7.129-9.623l5.295,5.293c2.288,2.289,4.16,1.513,4.16-1.723V17.74H24.015C20.778,17.74,20,19.613,22.29,21.9Z" transform="translate(-19.875 -17.74)" fill="url(#linear-gradient-3)"/>
      </g>
    </g>
  </g>
</svg>
