<svg xmlns="http://www.w3.org/2000/svg" width="74" height="74" viewBox="0 0 74 74">
  <g id="f2_c" transform="translate(-7654 5711)">
    <rect id="f2_c-2" data-name="f2_c" width="74" height="74" transform="translate(7654 -5711)" fill="rgba(146,71,71,0)"/>
    <g id="free" transform="translate(7658.99 -5706)">
      <path id="路径_32938" data-name="路径 32938" d="M61.07,32l2.808-7.324a2,2,0,0,0-.608-2.272l-6.088-4.936L55.95,9.724a2,2,0,0,0-1.664-1.66L46.538,6.832,41.606.74A2,2,0,0,0,39.339.132L32.011,2.944,24.687.136a2,2,0,0,0-2.268.608L17.483,6.836,9.735,8.068a2,2,0,0,0-1.66,1.66L6.843,17.475.752,22.411a2,2,0,0,0-.608,2.268L2.952,32,.144,39.327a2,2,0,0,0,.608,2.268l6.092,4.932,1.232,7.748a2,2,0,0,0,1.66,1.664l7.748,1.232,4.936,6.088a1.99,1.99,0,0,0,2.272.608l7.32-2.8,7.324,2.808a2,2,0,0,0,2.272-.612l4.932-6.088,7.748-1.232a2,2,0,0,0,1.664-1.664l1.232-7.748,6.088-4.932a2,2,0,0,0,.608-2.268Z" transform="translate(0 0)" fill="#0f9be8"/>
      <path id="路径_32943" data-name="路径 32943" d="M-7619.052,5832.872a2.188,2.188,0,0,1-2.187-2.187v-17.5a2.189,2.189,0,0,1,2.188-2.187h4.375a2.188,2.188,0,0,1,2.187,2.188,2.188,2.188,0,0,1-2.187,2.187h-2.187v4.373h2.188a2.189,2.189,0,0,1,2.187,2.189,2.188,2.188,0,0,1-2.187,2.188h-2.187v4.373h2.188a2.188,2.188,0,0,1,2.187,2.188,2.187,2.187,0,0,1-2.187,2.188Zm-11.325,0a2.188,2.188,0,0,1-2.187-2.187v-17.5a2.189,2.189,0,0,1,2.188-2.187H-7626a2.188,2.188,0,0,1,2.188,2.188,2.188,2.188,0,0,1-2.187,2.187h-2.187v4.373H-7626a2.189,2.189,0,0,1,2.188,2.189,2.189,2.189,0,0,1-2.187,2.188h-2.187v4.373H-7626a2.189,2.189,0,0,1,2.188,2.188,2.187,2.187,0,0,1-2.187,2.188Zm-8.3-.875-4.813-6.418v5.1a2.186,2.186,0,0,1-2.187,2.188,2.187,2.187,0,0,1-2.187-2.187v-17.5a2.188,2.188,0,0,1,2.188-2.187h4.375a6.568,6.568,0,0,1,6.563,6.562,6.547,6.547,0,0,1-4.619,6.234l4.177,5.578a2.184,2.184,0,0,1-.436,3.062,2.154,2.154,0,0,1-1.309.437A2.177,2.177,0,0,1-7638.677,5832Zm-4.813-12.25h2.188a2.187,2.187,0,0,0,2.188-2.186,2.188,2.188,0,0,0-2.187-2.187h-2.187Zm-15.5,10.937v-17.5A2.187,2.187,0,0,1-7656.8,5811h4.373a2.187,2.187,0,0,1,2.188,2.188,2.187,2.187,0,0,1-2.187,2.187h-2.187v4.373h2.187a2.188,2.188,0,0,1,2.188,2.189,2.187,2.187,0,0,1-2.187,2.188h-2.187v6.56a2.186,2.186,0,0,1-2.186,2.188A2.186,2.186,0,0,1-7658.989,5830.685Z" transform="translate(7667.751 -5789.933)" fill="#ffd112"/>
    </g>
  </g>
</svg>
