<svg xmlns="http://www.w3.org/2000/svg" xmlns:xlink="http://www.w3.org/1999/xlink" width="1920" height="960" viewBox="0 0 1920 960">
  <defs>
    <clipPath id="clip-path">
      <rect id="矩形_3537" data-name="矩形 3537" width="1920" height="960" transform="translate(17273 -3181)" fill="#fff"/>
    </clipPath>
    <linearGradient id="linear-gradient" x1="0.019" y1="0.886" x2="0.912" y2="0.807" gradientUnits="objectBoundingBox">
      <stop offset="0" stop-color="#b3ebf2"/>
      <stop offset="1" stop-color="#baddff"/>
    </linearGradient>
    <filter id="矩形_3540" x="-60.99" y="-403.906" width="2004.016" height="1405.906" filterUnits="userSpaceOnUse">
      <feOffset dx="2" dy="12" input="SourceAlpha"/>
      <feGaussianBlur stdDeviation="10" result="blur"/>
      <feFlood flood-color="#fff" flood-opacity="0.341"/>
      <feComposite operator="in" in2="blur"/>
      <feComposite in="SourceGraphic"/>
    </filter>
    <clipPath id="clip-path-2">
      <rect id="矩形_3541" data-name="矩形 3541" width="1807.814" height="1105.061" rx="74" transform="translate(0 251.599) rotate(-8)" fill="#fff"/>
    </clipPath>
    <linearGradient id="linear-gradient-2" x1="0.257" y1="0.332" x2="0.143" y2="0.885" gradientUnits="objectBoundingBox">
      <stop offset="0" stop-color="#fff" stop-opacity="0"/>
      <stop offset="1" stop-color="#b8f8ff"/>
    </linearGradient>
  </defs>
  <g id="banner-bg" transform="translate(-17273 3181)" clip-path="url(#clip-path)">
    <rect id="矩形_3539" data-name="矩形 3539" width="1765.629" height="1007.314" rx="35" transform="translate(17297.613 -3400.501)" fill="url(#linear-gradient)"/>
    <g transform="matrix(1, 0, 0, 1, 17273, -3181)" filter="url(#矩形_3540)">
      <rect id="矩形_3540-2" data-name="矩形 3540" width="1807.814" height="1105.061" rx="74" transform="translate(-32.99 -134.31) rotate(-8)" fill="#fff"/>
    </g>
    <g id="蒙版组_10" data-name="蒙版组 10" transform="translate(17240.01 -3566.906)" clip-path="url(#clip-path-2)">
      <path id="路径_32678" data-name="路径 32678" d="M17328.859-3085.858c32.152,4.593,146.979,34.448,298.547,105.639,86.393,40.579,122.795,114,152.18,173.888,22.139,45.118,40.289,82.544,72.877,92.315,75.783,22.724,257.207,16.266,562.641,78.271s616.563,129.37,543.076,205.116-657.291,125.328-833.943,153.551-481.879,66.9-584.1,77.667-112.527-22.965-130.9-158.458S17296.709-3090.45,17328.859-3085.858Z" transform="translate(-17291.137 3543.259)" fill="url(#linear-gradient-2)"/>
    </g>
  </g>
</svg>
