<svg xmlns="http://www.w3.org/2000/svg" xmlns:xlink="http://www.w3.org/1999/xlink" width="32" height="32" viewBox="0 0 32 32">
  <defs>
    <clipPath id="clip-path">
      <rect id="矩形_3529" data-name="矩形 3529" width="32" height="32" rx="16" transform="translate(7747 -4156)" fill="#fff"/>
    </clipPath>
    <radialGradient id="radial-gradient" cx="0.266" cy="1.077" r="0.991" gradientTransform="translate(-2.918 5.666) rotate(-90) scale(1 0.93)" gradientUnits="objectBoundingBox">
      <stop offset="0" stop-color="#fd5"/>
      <stop offset="0.1" stop-color="#fd5"/>
      <stop offset="0.5" stop-color="#ff543e"/>
      <stop offset="1" stop-color="#c837ab"/>
    </radialGradient>
    <radialGradient id="radial-gradient-2" cx="-0.168" cy="0.072" r="0.443" gradientTransform="matrix(0.196, 0.981, -4.042, 0.809, 15.634, -0.42)" gradientUnits="objectBoundingBox">
      <stop offset="0" stop-color="#3771c8"/>
      <stop offset="0.128" stop-color="#3771c8"/>
      <stop offset="1" stop-color="#60f" stop-opacity="0"/>
    </radialGradient>
  </defs>
  <g id="ic_ins" transform="translate(-7747 4156)" clip-path="url(#clip-path)">
    <g id="Instagram_logo_2016" transform="translate(7750.436 -4152.243)">
      <rect id="矩形_3532" data-name="矩形 3532" width="24" height="24" rx="4" transform="translate(0.564 0.243)" fill="url(#radial-gradient)"/>
      <rect id="矩形_3533" data-name="矩形 3533" width="24" height="24" rx="4" transform="translate(0.564 0.243)" fill="url(#radial-gradient-2)"/>
      <path id="路径_32677" data-name="路径 32677" d="M13.431,4.43c-2.444,0-2.751.011-3.711.054A6.6,6.6,0,0,0,7.535,4.9,4.6,4.6,0,0,0,4.9,7.534a6.574,6.574,0,0,0-.418,2.184c-.043.96-.054,1.267-.054,3.711s.011,2.75.054,3.71A6.614,6.614,0,0,0,4.9,19.325a4.606,4.606,0,0,0,2.632,2.633,6.61,6.61,0,0,0,2.185.418c.96.044,1.267.054,3.711.054s2.75-.011,3.71-.054a6.614,6.614,0,0,0,2.186-.418,4.611,4.611,0,0,0,2.632-2.633,6.671,6.671,0,0,0,.418-2.184c.043-.96.054-1.266.054-3.71s-.011-2.751-.054-3.711a6.668,6.668,0,0,0-.418-2.184A4.6,4.6,0,0,0,19.325,4.9a6.625,6.625,0,0,0-2.186-.418c-.96-.044-1.266-.054-3.711-.054Zm-.807,1.622h.807c2.4,0,2.688.009,3.637.052a4.983,4.983,0,0,1,1.671.31,2.982,2.982,0,0,1,1.708,1.708,4.973,4.973,0,0,1,.31,1.671c.043.949.053,1.234.053,3.636s-.009,2.687-.053,3.636a4.978,4.978,0,0,1-.31,1.671,2.985,2.985,0,0,1-1.708,1.707,4.965,4.965,0,0,1-1.671.31c-.949.043-1.234.052-3.637.052s-2.688-.009-3.637-.052a4.993,4.993,0,0,1-1.671-.31,2.982,2.982,0,0,1-1.709-1.708,4.973,4.973,0,0,1-.31-1.671c-.043-.949-.052-1.234-.052-3.637s.009-2.687.052-3.636a4.983,4.983,0,0,1,.31-1.671A2.983,2.983,0,0,1,8.123,6.411,4.972,4.972,0,0,1,9.794,6.1c.83-.038,1.152-.049,2.829-.051Zm5.612,1.494a1.08,1.08,0,1,0,1.08,1.08,1.08,1.08,0,0,0-1.08-1.08Zm-4.8,1.262a4.621,4.621,0,1,0,4.621,4.622,4.622,4.622,0,0,0-4.621-4.622Zm0,1.622a3,3,0,1,1-3,3A3,3,0,0,1,13.431,10.43Z" transform="translate(-0.866 -1.187)" fill="#fff"/>
    </g>
  </g>
</svg>
