<svg xmlns="http://www.w3.org/2000/svg" xmlns:xlink="http://www.w3.org/1999/xlink" width="32" height="32" viewBox="0 0 32 32">
  <defs>
    <clipPath id="clip-path">
      <rect id="矩形_3528" data-name="矩形 3528" width="32" height="32" rx="16" transform="translate(7751 -4156)" fill="#fff"/>
    </clipPath>
  </defs>
  <g id="ic_line" transform="translate(-7751 4156)" clip-path="url(#clip-path)">
    <g id="line-messenger" transform="translate(7755 -4152)">
      <rect id="矩形_3530" data-name="矩形 3530" width="24" height="24" rx="4" fill="#3ace01"/>
      <path id="路径_32673" data-name="路径 32673" d="M13.034,5.3c4.863,0,8.805,3.157,8.805,7.051a6.026,6.026,0,0,1-1.315,3.707,1.825,1.825,0,0,1-.163.2l-.005.006a7.634,7.634,0,0,1-.958.955c-2.435,2.251-6.443,4.93-6.972,4.517-.46-.359.757-2.117-.647-2.409-.1-.011-.2-.023-.293-.037h0c-4.125-.586-7.257-3.471-7.257-6.942,0-3.894,3.942-7.051,8.805-7.051Z" transform="translate(-1.057 -1.325)" fill="#fff" fill-rule="evenodd"/>
      <path id="路径_32674" data-name="路径 32674" d="M9,16.259H10.78a.461.461,0,0,0,.459-.459v-.038a.461.461,0,0,0-.459-.459H9.5V12.394a.461.461,0,0,0-.459-.459H9a.461.461,0,0,0-.459.459V15.8A.461.461,0,0,0,9,16.259Zm11-2.135v-.038a.461.461,0,0,0-.459-.459H18.271V12.9h1.278a.461.461,0,0,0,.459-.459V12.4a.461.461,0,0,0-.459-.459H17.773a.461.461,0,0,0-.459.459v3.406a.461.461,0,0,0,.459.459h1.776a.461.461,0,0,0,.459-.459v-.038a.461.461,0,0,0-.459-.459H18.271v-.727h1.278a.46.46,0,0,0,.459-.459Zm-3.415,2h0a.458.458,0,0,0,.133-.322V12.394a.461.461,0,0,0-.459-.459h-.038a.461.461,0,0,0-.459.459v2l-1.66-2.226a.46.46,0,0,0-.4-.232h-.038a.461.461,0,0,0-.459.459V15.8a.461.461,0,0,0,.459.459h.038a.461.461,0,0,0,.459-.459V13.763l1.672,2.283a.469.469,0,0,0,.034.046h0a.385.385,0,0,0,.179.132.455.455,0,0,0,.174.035h.038a.455.455,0,0,0,.215-.054A.323.323,0,0,0,16.593,16.122Zm-4.524.137h.038a.461.461,0,0,0,.459-.459V12.394a.461.461,0,0,0-.459-.459h-.038a.461.461,0,0,0-.459.459V15.8a.461.461,0,0,0,.459.459Z" transform="translate(-2.136 -2.984)" fill="#3ace01" fill-rule="evenodd"/>
    </g>
  </g>
</svg>
