<svg id="search" xmlns="http://www.w3.org/2000/svg" xmlns:xlink="http://www.w3.org/1999/xlink" width="110" height="112" viewBox="0 0 110 112">
  <defs>
    <linearGradient id="linear-gradient" x1="0.5" x2="0.5" y2="1" gradientUnits="objectBoundingBox">
      <stop offset="0" stop-color="#03bad4"/>
      <stop offset="0.262" stop-color="#009cb2"/>
      <stop offset="0.515" stop-color="#03bad4"/>
      <stop offset="0.679" stop-color="#009cb2"/>
      <stop offset="0.771" stop-color="#009cb2"/>
      <stop offset="1" stop-color="#03bad4"/>
    </linearGradient>
    <filter id="多边形_1" x="0" y="4" width="96" height="108" filterUnits="userSpaceOnUse">
      <feOffset dy="3" input="SourceAlpha"/>
      <feGaussianBlur stdDeviation="3" result="blur"/>
      <feFlood flood-color="#00cfc3" flood-opacity="0.502"/>
      <feComposite operator="in" in2="blur"/>
      <feComposite in="SourceGraphic"/>
    </filter>
  </defs>
  <rect id="矩形_3356" data-name="矩形 3356" width="110" height="110" fill="rgba(255,255,255,0)"/>
  <g id="组_16207" data-name="组 16207" transform="translate(-575 -559)">
    <g transform="matrix(1, 0, 0, 1, 575, 559)" filter="url(#多边形_1)">
      <g id="多边形_1-2" data-name="多边形 1" transform="translate(87 10) rotate(90)" fill="url(#linear-gradient)">
        <path d="M 61.724365234375 77.5 L 28.27563285827637 77.5 C 24.89122200012207 77.5 21.73814392089844 75.67890167236328 20.04686737060547 72.74735260009766 L 3.316099882125854 43.74735641479492 C 1.626711130142212 40.81907653808594 1.626711130142212 37.18091201782227 3.316099882125854 34.25262069702148 L 20.04687690734863 5.252644538879395 C 21.73815536499023 2.321099996566772 24.89123344421387 0.5 28.27564430236816 0.5 L 61.724365234375 0.5 C 65.10877990722656 0.5 68.2618408203125 2.321099996566772 69.953125 5.252644538879395 L 86.68389892578125 34.25264358520508 C 88.373291015625 37.18092346191406 88.373291015625 40.81907653808594 86.68389892578125 43.74736785888672 L 69.953125 72.74735260009766 C 68.2618408203125 75.67890167236328 65.10877990722656 77.5 61.724365234375 77.5 Z" stroke="none"/>
        <path d="M 28.2756462097168 1 C 25.06935119628906 1 22.08222198486328 2.725257873535156 20.47997283935547 5.502494812011719 L 3.749198913574219 34.50248336791992 C 2.148727416992188 37.27665710449219 2.148727416992188 40.72334289550781 3.749198913574219 43.49750518798828 L 20.47997283935547 72.49750518798828 C 22.08221435546875 75.27474212646484 25.06934356689453 77 28.275634765625 77 L 61.724365234375 77 C 64.93064880371094 77 67.91777801513672 75.27474212646484 69.52001953125 72.49750518798828 L 86.25080108642578 43.49750518798828 C 87.85127258300781 40.72334289550781 87.85127258300781 37.27665710449219 86.25080108642578 34.50249481201172 L 69.52001953125 5.502494812011719 C 67.91777801513672 2.725257873535156 64.93064880371094 1 61.724365234375 1 L 28.2756462097168 1 M 28.2756462097168 0 L 61.724365234375 0 C 65.29816436767578 0 68.60030364990234 1.907203674316406 70.38621520996094 5.002777099609375 L 87.11698913574219 34.00277709960938 C 88.90117645263672 37.09537506103516 88.90117645263672 40.90462493896484 87.11698913574219 43.99722290039063 L 70.38621520996094 72.99722290039063 C 68.60030364990234 76.09279632568359 65.29816436767578 78 61.724365234375 78 L 28.275634765625 78 C 24.70183563232422 78 21.39968109130859 76.09279632568359 19.61378479003906 72.99722290039063 L 2.883010864257813 43.99722290039063 C 1.098823547363281 40.90462493896484 1.098823547363281 37.09537506103516 2.883010864257813 34.00276565551758 L 19.61378479003906 5.002777099609375 C 21.39969635009766 1.907203674316406 24.70184326171875 0 28.2756462097168 0 Z" stroke="none" fill="#03bad4"/>
      </g>
    </g>
    <g id="多边形_2" data-name="多边形 2" transform="translate(662 565) rotate(90)" fill="#f2f6ff">
      <path d="M 61.68765258789063 78 L 28.31234550476074 78 C 25.08567428588867 78 22.08912086486816 76.25829315185547 20.49207496643066 73.45458984375 L 3.688274383544922 43.95458984375 C 2.916497945785522 42.59967041015625 2.508556842803955 41.05930709838867 2.508556842803955 39.5 C 2.508556842803955 37.94069290161133 2.916497945785522 36.40031814575195 3.688274383544922 35.04541015625 L 20.49208641052246 5.545411586761475 C 22.08913230895996 2.741705894470215 25.08568572998047 1 28.31235694885254 1 L 61.68765258789063 1 C 64.91432189941406 1 67.910888671875 2.741705894470215 69.5079345703125 5.545411586761475 L 86.31172180175781 35.04541015625 C 87.08351135253906 36.40031814575195 87.49144744873047 37.94069290161133 87.49144744873047 39.5 C 87.49144744873047 41.05929565429688 87.08351135253906 42.59967041015625 86.31172180175781 43.95458984375 L 69.5079345703125 73.45458984375 C 67.910888671875 76.25829315185547 64.91432189941406 78 61.68765258789063 78 Z" stroke="none"/>
      <path d="M 28.31235122680664 2 C 25.44420623779297 2 22.78060150146484 3.548171997070313 21.36100006103516 6.040359497070313 L 4.557205200195313 35.54035949707031 C 3.871177673339844 36.74473190307617 3.508552551269531 38.11394500732422 3.508552551269531 39.5 C 3.508552551269531 40.88605499267578 3.871162414550781 42.25526809692383 4.557205200195313 43.45962524414063 L 21.36099243164063 72.95962524414063 C 22.78059387207031 75.45181274414063 25.44419097900391 77 28.31235122680664 77 L 61.68764495849609 77 C 64.55580139160156 77 67.21940612792969 75.45181274414063 68.63900756835938 72.95962524414063 L 85.44280242919922 43.45962524414063 C 86.12884521484375 42.25526809692383 86.491455078125 40.88605499267578 86.491455078125 39.5 C 86.491455078125 38.11394500732422 86.12884521484375 36.74473190307617 85.44280242919922 35.54037475585938 L 68.63900756835938 6.040359497070313 C 67.21940612792969 3.548171997070313 64.55580139160156 2 61.68765640258789 2 L 28.31235122680664 2 M 28.31235122680664 0 L 61.68765640258789 0 C 65.28109741210938 0 68.59825897216797 1.92803955078125 70.37684631347656 5.050453186035156 L 87.18064117431641 34.55046844482422 C 88.92839050292969 37.61872100830078 88.92839050292969 41.38127899169922 87.18064117431641 44.44953155517578 L 70.37684631347656 73.94953155517578 C 68.59825897216797 77.07194519042969 65.28109741210938 79 61.68764495849609 79 L 28.31235122680664 79 C 24.71889495849609 79 21.4017333984375 77.07194519042969 19.62315368652344 73.94953155517578 L 2.819366455078125 44.44953155517578 C 1.071617126464844 41.38127899169922 1.071617126464844 37.61872100830078 2.819366455078125 34.55045318603516 L 19.62316131591797 5.050453186035156 C 21.40174865722656 1.92803955078125 24.71891021728516 0 28.31235122680664 0 Z" stroke="none" fill="#03bad4"/>
    </g>
  </g>
  <g id="magnifying-glass" transform="translate(24.05 27.046)">
    <g id="组_16888" data-name="组 16888" transform="translate(9.262 9.262)">
      <path id="路径_32512" data-name="路径 32512" d="M36.611,137.335a4.15,4.15,0,0,0,0-5.869L6.273,101.128a1.38,1.38,0,0,0-1.951,0L.4,105.046A1.379,1.379,0,0,0,.4,107l30.338,30.338a4.155,4.155,0,0,0,5.869,0Z" transform="translate(0 -100.724)" fill="#464b52"/>
    </g>
    <path id="路径_32513" data-name="路径 32513" d="M13.621,128.377a1.379,1.379,0,0,0,0,1.951l30.338,30.338a4.155,4.155,0,0,0,5.869,0L15.58,126.418Z" transform="translate(-3.955 -114.792)" fill="#292b2f"/>
    <ellipse id="椭圆_224" data-name="椭圆 224" cx="18.003" cy="18.003" rx="18.003" ry="18.003" transform="translate(0 0)" fill="#76cefb"/>
    <path id="路径_32514" data-name="路径 32514" d="M183.178,57.409a17.995,17.995,0,1,0,25.448,25.449Z" transform="translate(-177.899 -52.13)" fill="#6897f4"/>
    <ellipse id="椭圆_225" data-name="椭圆 225" cx="12.462" cy="12.462" rx="12.462" ry="12.462" transform="translate(5.541 5.541)" fill="#e1faff"/>
    <path id="路径_32515" data-name="路径 32515" d="M232.944,121.263a12.423,12.423,0,0,0,8.808-3.654L224.136,99.993a12.456,12.456,0,0,0,8.808,21.27Z" transform="translate(-214.941 -90.798)" fill="#c7f5ff"/>
  </g>
</svg>
