<svg id="service" xmlns="http://www.w3.org/2000/svg" xmlns:xlink="http://www.w3.org/1999/xlink" width="110" height="112" viewBox="0 0 110 112">
  <defs>
    <linearGradient id="linear-gradient" x1="0.5" x2="0.5" y2="1" gradientUnits="objectBoundingBox">
      <stop offset="0" stop-color="#03bad4"/>
      <stop offset="0.262" stop-color="#009cb2"/>
      <stop offset="0.515" stop-color="#03bad4"/>
      <stop offset="0.679" stop-color="#009cb2"/>
      <stop offset="0.771" stop-color="#009cb2"/>
      <stop offset="1" stop-color="#03bad4"/>
    </linearGradient>
    <filter id="多边形_1" x="0" y="4" width="96" height="108" filterUnits="userSpaceOnUse">
      <feOffset dy="3" input="SourceAlpha"/>
      <feGaussianBlur stdDeviation="3" result="blur"/>
      <feFlood flood-color="#00cfc3" flood-opacity="0.502"/>
      <feComposite operator="in" in2="blur"/>
      <feComposite in="SourceGraphic"/>
    </filter>
  </defs>
  <rect id="矩形_3356" data-name="矩形 3356" width="110" height="110" fill="rgba(255,255,255,0)"/>
  <g id="组_16207" data-name="组 16207" transform="translate(-575 -559)">
    <g transform="matrix(1, 0, 0, 1, 575, 559)" filter="url(#多边形_1)">
      <g id="多边形_1-2" data-name="多边形 1" transform="translate(87 10) rotate(90)" fill="url(#linear-gradient)">
        <path d="M 61.724365234375 77.5 L 28.27563285827637 77.5 C 24.89122200012207 77.5 21.73814392089844 75.67890167236328 20.04686737060547 72.74735260009766 L 3.316099882125854 43.74735641479492 C 1.626711130142212 40.81907653808594 1.626711130142212 37.18091201782227 3.316099882125854 34.25262069702148 L 20.04687690734863 5.252644538879395 C 21.73815536499023 2.321099996566772 24.89123344421387 0.5 28.27564430236816 0.5 L 61.724365234375 0.5 C 65.10877990722656 0.5 68.2618408203125 2.321099996566772 69.953125 5.252644538879395 L 86.68389892578125 34.25264358520508 C 88.373291015625 37.18092346191406 88.373291015625 40.81907653808594 86.68389892578125 43.74736785888672 L 69.953125 72.74735260009766 C 68.2618408203125 75.67890167236328 65.10877990722656 77.5 61.724365234375 77.5 Z" stroke="none"/>
        <path d="M 28.2756462097168 1 C 25.06935119628906 1 22.08222198486328 2.725257873535156 20.47997283935547 5.502494812011719 L 3.749198913574219 34.50248336791992 C 2.148727416992188 37.27665710449219 2.148727416992188 40.72334289550781 3.749198913574219 43.49750518798828 L 20.47997283935547 72.49750518798828 C 22.08221435546875 75.27474212646484 25.06934356689453 77 28.275634765625 77 L 61.724365234375 77 C 64.93064880371094 77 67.91777801513672 75.27474212646484 69.52001953125 72.49750518798828 L 86.25080108642578 43.49750518798828 C 87.85127258300781 40.72334289550781 87.85127258300781 37.27665710449219 86.25080108642578 34.50249481201172 L 69.52001953125 5.502494812011719 C 67.91777801513672 2.725257873535156 64.93064880371094 1 61.724365234375 1 L 28.2756462097168 1 M 28.2756462097168 0 L 61.724365234375 0 C 65.29816436767578 0 68.60030364990234 1.907203674316406 70.38621520996094 5.002777099609375 L 87.11698913574219 34.00277709960938 C 88.90117645263672 37.09537506103516 88.90117645263672 40.90462493896484 87.11698913574219 43.99722290039063 L 70.38621520996094 72.99722290039063 C 68.60030364990234 76.09279632568359 65.29816436767578 78 61.724365234375 78 L 28.275634765625 78 C 24.70183563232422 78 21.39968109130859 76.09279632568359 19.61378479003906 72.99722290039063 L 2.883010864257813 43.99722290039063 C 1.098823547363281 40.90462493896484 1.098823547363281 37.09537506103516 2.883010864257813 34.00276565551758 L 19.61378479003906 5.002777099609375 C 21.39969635009766 1.907203674316406 24.70184326171875 0 28.2756462097168 0 Z" stroke="none" fill="#03bad4"/>
      </g>
    </g>
    <g id="多边形_2" data-name="多边形 2" transform="translate(662 565) rotate(90)" fill="#f2f6ff">
      <path d="M 61.68765258789063 78 L 28.31234550476074 78 C 25.08567428588867 78 22.08912086486816 76.25829315185547 20.49207496643066 73.45458984375 L 3.688274383544922 43.95458984375 C 2.916497945785522 42.59967041015625 2.508556842803955 41.05930709838867 2.508556842803955 39.5 C 2.508556842803955 37.94069290161133 2.916497945785522 36.40031814575195 3.688274383544922 35.04541015625 L 20.49208641052246 5.545411586761475 C 22.08913230895996 2.741705894470215 25.08568572998047 1 28.31235694885254 1 L 61.68765258789063 1 C 64.91432189941406 1 67.910888671875 2.741705894470215 69.5079345703125 5.545411586761475 L 86.31172180175781 35.04541015625 C 87.08351135253906 36.40031814575195 87.49144744873047 37.94069290161133 87.49144744873047 39.5 C 87.49144744873047 41.05929565429688 87.08351135253906 42.59967041015625 86.31172180175781 43.95458984375 L 69.5079345703125 73.45458984375 C 67.910888671875 76.25829315185547 64.91432189941406 78 61.68765258789063 78 Z" stroke="none"/>
      <path d="M 28.31235122680664 2 C 25.44420623779297 2 22.78060150146484 3.548171997070313 21.36100006103516 6.040359497070313 L 4.557205200195313 35.54035949707031 C 3.871177673339844 36.74473190307617 3.508552551269531 38.11394500732422 3.508552551269531 39.5 C 3.508552551269531 40.88605499267578 3.871162414550781 42.25526809692383 4.557205200195313 43.45962524414063 L 21.36099243164063 72.95962524414063 C 22.78059387207031 75.45181274414063 25.44419097900391 77 28.31235122680664 77 L 61.68764495849609 77 C 64.55580139160156 77 67.21940612792969 75.45181274414063 68.63900756835938 72.95962524414063 L 85.44280242919922 43.45962524414063 C 86.12884521484375 42.25526809692383 86.491455078125 40.88605499267578 86.491455078125 39.5 C 86.491455078125 38.11394500732422 86.12884521484375 36.74473190307617 85.44280242919922 35.54037475585938 L 68.63900756835938 6.040359497070313 C 67.21940612792969 3.548171997070313 64.55580139160156 2 61.68765640258789 2 L 28.31235122680664 2 M 28.31235122680664 0 L 61.68765640258789 0 C 65.28109741210938 0 68.59825897216797 1.92803955078125 70.37684631347656 5.050453186035156 L 87.18064117431641 34.55046844482422 C 88.92839050292969 37.61872100830078 88.92839050292969 41.38127899169922 87.18064117431641 44.44953155517578 L 70.37684631347656 73.94953155517578 C 68.59825897216797 77.07194519042969 65.28109741210938 79 61.68764495849609 79 L 28.31235122680664 79 C 24.71889495849609 79 21.4017333984375 77.07194519042969 19.62315368652344 73.94953155517578 L 2.819366455078125 44.44953155517578 C 1.071617126464844 41.38127899169922 1.071617126464844 37.61872100830078 2.819366455078125 34.55045318603516 L 19.62316131591797 5.050453186035156 C 21.40174865722656 1.92803955078125 24.71891021728516 0 28.31235122680664 0 Z" stroke="none" fill="#03bad4"/>
    </g>
  </g>
  <g id="customer-service" transform="translate(23 24.866)">
    <g id="组_16914" data-name="组 16914" transform="translate(11.456 0)">
      <g id="组_16911" data-name="组 16911" transform="translate(0 0)">
        <path id="路径_32537" data-name="路径 32537" d="M182.845,28.507H165.029a5.254,5.254,0,0,1-4.043-8.61l.158-.19a8.4,8.4,0,0,0,1.937-5.367V10.9a10.9,10.9,0,0,1,21.807,0v3.552a8.4,8.4,0,0,0,1.976,5.413A5.254,5.254,0,0,1,182.845,28.507Z" transform="translate(-155.664 0)" fill="#c59191"/>
        <path id="路径_32538" data-name="路径 32538" d="M154.2,254.12V265.9H117.65v-11.69a6.577,6.577,0,0,1,4.024-6.062l5.9-2.565,1.986-.864a4.128,4.128,0,0,0,2.482-3.786v-.762h7.76v.724a4.128,4.128,0,0,0,2.5,3.794l7.98,3.421A6.575,6.575,0,0,1,154.2,254.12Z" transform="translate(-117.65 -216.784)" fill="#fff"/>
        <path id="路径_32539" data-name="路径 32539" d="M215.993,248.392a28.261,28.261,0,0,0,16.7-.157l.962-2.291-2.93-1.256a4.128,4.128,0,0,1-2.5-3.794v-.723h-7.76v.762a4.128,4.128,0,0,1-2.482,3.786l-2.373,1.032Z" transform="translate(-206.069 -216.786)" fill="#ffcebf"/>
        <g id="组_16910" data-name="组 16910" transform="translate(0 28.747)">
          <path id="路径_32540" data-name="路径 32540" d="M397.065,297.8l-6.011-2.576h0v20.367h9.924V303.815A6.576,6.576,0,0,0,397.065,297.8Z" transform="translate(-364.431 -295.226)" fill="#8795de"/>
          <path id="路径_32541" data-name="路径 32541" d="M127.574,295.75v20.316H117.65v-11.69a6.577,6.577,0,0,1,4.024-6.062Z" transform="translate(-117.65 -295.699)" fill="#8795de"/>
        </g>
      </g>
      <g id="组_16913" data-name="组 16913" transform="translate(7.418)">
        <path id="路径_32542" data-name="路径 32542" d="M268.683,244.432a6.526,6.526,0,0,0,2.519-.5,4.127,4.127,0,0,1-1.329-3.033v-.723h-7.76v.762a4.12,4.12,0,0,1-.361,1.688,6.524,6.524,0,0,0,4.516,1.809h2.415Z" transform="translate(-255.138 -216.786)" fill="#ffb09e"/>
        <path id="路径_32543" data-name="路径 32543" d="M241.173,80.8v6.419a6.548,6.548,0,0,1-6.548,6.548H232.21a6.548,6.548,0,0,1-6.548-6.548V80.8a4.26,4.26,0,0,1,4.26-4.26h6.991A4.26,4.26,0,0,1,241.173,80.8Z" transform="translate(-222.562 -69.091)" fill="#ffcebf"/>
        <path id="路径_32544" data-name="路径 32544" d="M335.906,154.593c0,.009-.007.017-.009.026a6.909,6.909,0,0,1-2.359,3.519,6.6,6.6,0,0,1-2.37,1.158.741.741,0,1,0,.376,1.434,8.076,8.076,0,0,0,2.9-1.418,7.939,7.939,0,0,0,1.459-1.468c0-.057,0-.115,0-.172v-3.08Z" transform="translate(-317.295 -139.54)" fill="#7a6d79"/>
        <path id="路径_32545" data-name="路径 32545" d="M298.579,197.4h-1.737a1.431,1.431,0,0,1,0-2.863h1.737a1.431,1.431,0,1,1,0,2.863Z" transform="translate(-285.519 -175.594)" fill="#685e68"/>
        <g id="组_16912" data-name="组 16912">
          <path id="路径_32546" data-name="路径 32546" d="M321.1,20.068c.166-2.1,2.174-3.489,4.1-4.21a10.9,10.9,0,0,1,5.308,9.359v.75c-.176.037-.351.069-.524.1a8.827,8.827,0,0,1-2.576,0C323.432,25.533,320.9,22.6,321.1,20.068Z" transform="translate(-308.695 -14.314)" fill="#b98080"/>
          <path id="路径_32547" data-name="路径 32547" d="M204.731,0a10.854,10.854,0,0,1,6.559,2.193,19.448,19.448,0,0,1-6.922,7.036,19.3,19.3,0,0,1-7.345,2.519h-3.2V10.9A10.9,10.9,0,0,1,204.731,0Z" transform="translate(-193.828)" fill="#c59191"/>
        </g>
      </g>
    </g>
    <path id="路径_32548" data-name="路径 32548" d="M198.834,374.768H175.109L173.8,362.424a1.482,1.482,0,0,1,1.474-1.639h23.395a1.482,1.482,0,0,1,1.474,1.639Z" transform="translate(-156.869 -325.654)" fill="#efedef"/>
    <path id="路径_32549" data-name="路径 32549" d="M401.791,360.785h-2.965a1.482,1.482,0,0,1,1.474,1.639l-1.309,12.345h2.965l1.309-12.345A1.482,1.482,0,0,0,401.791,360.785Z" transform="translate(-359.991 -325.654)" fill="#e5e1e5"/>
    <g id="组_16915" data-name="组 16915" transform="translate(0 48.395)">
      <path id="路径_32550" data-name="路径 32550" d="M49.125,498.461H.73A.73.73,0,1,1,.73,497H49.125a.73.73,0,1,1,0,1.461Z" transform="translate(0 -497)" fill="#c9bfc8"/>
    </g>
    <circle id="椭圆_228" data-name="椭圆 228" cx="2.075" cy="2.075" r="2.075" transform="translate(28.027 40.047)" fill="#c9bfc8"/>
    <g id="chat" transform="translate(-2.11 1.134)">
      <path id="路径_2196" data-name="路径 2196" d="M9.175,16.026c5.059,0,9.175,3.48,9.175,7.763a7.031,7.031,0,0,1-1.963,4.8l1.756,1.756a.7.7,0,0,1-.5,1.2H9.175C4.115,31.552,0,28.072,0,23.789S4.115,16.026,9.175,16.026Z" transform="translate(0 -16.026)" fill="#21b4c4"/>
      <path id="路径_2197" data-name="路径 2197" d="M96.732,144.026H105.2a.706.706,0,1,1,0,1.411H96.732a.706.706,0,1,1,0-1.411Z" transform="translate(-91.791 -138.38)" fill="#fafafa"/>
      <path id="路径_2198" data-name="路径 2198" d="M96.732,208.026h5.646a.706.706,0,1,1,0,1.411H96.732a.706.706,0,1,1,0-1.411Z" transform="translate(-88.968 -199.557)" fill="#fafafa"/>
    </g>
  </g>
</svg>
