<svg xmlns="http://www.w3.org/2000/svg" width="74" height="74" viewBox="0 0 74 74">
  <g id="f2_a" transform="translate(-7439 5711)">
    <rect id="f2_a-2" data-name="f2_a" width="74" height="74" transform="translate(7439 -5711)" fill="rgba(255,255,255,0)"/>
    <path id="路径_32937" data-name="路径 32937" d="M64,32A32,32,0,1,1,32,0,32,32,0,0,1,64,32Zm0,0" transform="translate(7443.969 -5706.031)" fill="#6ddbd1"/>
    <g id="rocket" transform="translate(7449 -5701.002)">
      <g id="组_17101" data-name="组 17101" transform="translate(28.119 29.351)">
        <g id="组_17100" data-name="组 17100">
          <path id="路径_32928" data-name="路径 32928" d="M24.226,13.018a1.705,1.705,0,0,0-1.839.283L12.9,21.748a1.708,1.708,0,0,0-.557,1.522l1.528,10.669a1.7,1.7,0,0,0,1.191,1.341l.506.08a1.838,1.838,0,0,0,1.284-.534A28.446,28.446,0,0,0,25.235,14.58a1.7,1.7,0,0,0-1.008-1.563Z" transform="translate(-12.326 -12.867)" fill="#109f92"/>
        </g>
      </g>
      <g id="组_17103" data-name="组 17103" transform="translate(2.86 13.719)">
        <g id="组_17102" data-name="组 17102">
          <path id="路径_32929" data-name="路径 32929" d="M22.079,6.014A28.442,28.442,0,0,0,1.834,14.395l-.08.078a1.71,1.71,0,0,0,.967,2.9L13.391,18.9l.242.018a1.71,1.71,0,0,0,1.277-.573l8.447-9.487a1.709,1.709,0,0,0-1.277-2.847Z" transform="translate(-1.253 -6.014)" fill="#2196f3"/>
        </g>
      </g>
      <g id="组_17105" data-name="组 17105" transform="translate(11.063 0.002)">
        <g id="组_17104" data-name="组 17104">
          <path id="路径_32930" data-name="路径 32930" d="M20.883,43.685a1.707,1.707,0,0,1-1.209-.5L5.35,28.86a1.712,1.712,0,0,1-.066-2.35L16.019,14.486C23.622,5.587,35.966-.225,46.858.008a1.71,1.71,0,0,1,1.67,1.67c.251,10.831-5.577,23.233-14.506,30.862l-12,10.71a1.711,1.711,0,0,1-1.143.436Z" transform="translate(-4.849 -0.001)" fill="#eceff1"/>
        </g>
      </g>
      <g id="组_17107" data-name="组 17107" transform="translate(33.384 9.963)">
        <g id="组_17106" data-name="组 17106">
          <path id="路径_32931" data-name="路径 32931" d="M20.334,15.769A5.7,5.7,0,1,1,24.367,14.1,5.685,5.685,0,0,1,20.334,15.769Z" transform="translate(-14.635 -4.368)" fill="#109f92"/>
        </g>
      </g>
      <g id="组_17109" data-name="组 17109" transform="translate(0.002 36.567)">
        <g id="组_17108" data-name="组 17108">
          <path id="路径_32932" data-name="路径 32932" d="M1.71,34.211a1.712,1.712,0,0,1-1.638-2.2C.645,30.089,3.631,20.4,5.962,18.069a7.37,7.37,0,0,1,10.178,0,7.2,7.2,0,0,1,0,10.181C13.812,30.579,4.119,33.565,2.2,34.14Z" transform="translate(0 -16.03)" fill="#ffd112"/>
        </g>
      </g>
      <g id="组_17111" data-name="组 17111" transform="translate(2.86 13.728)">
        <g id="组_17110" data-name="组 17110">
          <path id="路径_32933" data-name="路径 32933" d="M21.29,6.018A28.442,28.442,0,0,0,1.832,14.39l-.078.078a1.71,1.71,0,0,0,.967,2.9l7.489,1.074L20.626,6.775q.325-.38.664-.757Z" transform="translate(-1.253 -6.018)" fill="#078075"/>
        </g>
      </g>
      <g id="组_17115" data-name="组 17115" transform="translate(33.384 9.966)">
        <g id="组_17114" data-name="组 17114">
          <path id="路径_32935" data-name="路径 32935" d="M20.334,4.369A5.7,5.7,0,0,0,16.3,14.1l8.064-8.066a5.674,5.674,0,0,0-4.031-1.668Z" transform="translate(-14.635 -4.369)" fill="#078075"/>
        </g>
      </g>
      <g id="组_17117" data-name="组 17117" transform="translate(-0.001 36.567)">
        <g id="组_17116" data-name="组 17116">
          <path id="路径_32936" data-name="路径 32936" d="M11.053,16.03a7.189,7.189,0,0,0-5.092,2.039C3.632,20.4.646,30.091.071,32.007a1.714,1.714,0,0,0,.429,1.7l15.64-15.64A7.171,7.171,0,0,0,11.053,16.03Z" transform="translate(0.001 -16.03)" fill="#deb300"/>
        </g>
      </g>
    </g>
  </g>
</svg>
