<svg xmlns="http://www.w3.org/2000/svg" width="74" height="74" viewBox="0 0 74 74">
  <g id="f2_b" transform="translate(-7553 5711)">
    <rect id="f2_b-2" data-name="f2_b" width="74" height="74" transform="translate(7553 -5711)" fill="rgba(255,255,255,0)"/>
    <g id="ok" transform="translate(7557.969 -5706.031)">
      <path id="路径_32913" data-name="路径 32913" d="M64,32A32,32,0,1,1,32,0,32,32,0,0,1,64,32Zm0,0" fill="#00a596"/>
      <path id="路径_32914" data-name="路径 32914" d="M64,144.964A32,32,0,1,1,4.21,129a31.921,31.921,0,0,0,55.58,0A32.167,32.167,0,0,1,64,144.964Zm0,0" transform="translate(0 -113.144)" fill="#4ec7bc"/>
      <path id="路径_32915" data-name="路径 32915" d="M87.182,377.7h0a32.38,32.38,0,0,1-56.444,0H87.182Zm0,0" transform="translate(-26.96 -330.206)" fill="#078075"/>
      <g id="组_17099" data-name="组 17099" transform="translate(6.901 6.743)">
        <path id="路径_32916" data-name="路径 32916" d="M60.6,185.682h-.187a1.5,1.5,0,0,1-1.5-1.5v-.187H57.835v.187a1.5,1.5,0,0,1-1.5,1.5h-.187v1.072h.187a1.5,1.5,0,0,1,1.5,1.5v.187h1.071v-.187a1.5,1.5,0,0,1,1.5-1.5H60.6Zm0,0" transform="translate(-56.144 -168.121)" fill="#fff"/>
        <path id="路径_32917" data-name="路径 32917" d="M125.249,56.553h-.187a1.5,1.5,0,0,1-1.5-1.5v-.187h-1.071v.187a1.5,1.5,0,0,1-1.5,1.5H120.8v1.071h.188a1.5,1.5,0,0,1,1.5,1.5v.187h1.071v-.187a1.5,1.5,0,0,1,1.5-1.5h.187Zm0,0" transform="translate(-112.66 -54.863)" fill="#fff"/>
        <path id="路径_32918" data-name="路径 32918" d="M359.432,56.553h-.187a1.5,1.5,0,0,1-1.5-1.5v-.187h-1.071v.187a1.5,1.5,0,0,1-1.5,1.5h-.188v1.071h.188a1.5,1.5,0,0,1,1.5,1.5v.187h1.071v-.187a1.5,1.5,0,0,1,1.5-1.5h.187Zm0,0" transform="translate(-317.371 -54.863)" fill="#fff"/>
        <path id="路径_32919" data-name="路径 32919" d="M424.088,185.682H423.9a1.5,1.5,0,0,1-1.5-1.5v-.187h-1.071v.187a1.5,1.5,0,0,1-1.5,1.5h-.187v1.072h.187a1.5,1.5,0,0,1,1.5,1.5v.187H422.4v-.187a1.5,1.5,0,0,1,1.5-1.5h.187Zm0,0" transform="translate(-373.89 -168.121)" fill="#fff"/>
      </g>
      <path id="路径_32920" data-name="路径 32920" d="M152.744,149.344V167.4H136.969v-4.364h-3.512c-.142,0-.281,0-.421-.009h-.014a9.228,9.228,0,0,1-6.557-3.178,3.875,3.875,0,0,1-.936-2.536c0-.041,0-.083,0-.124a2.529,2.529,0,0,1,4.128-1.8,7.309,7.309,0,0,1,.564.5,5.428,5.428,0,0,0,4.04,1.582l.728-.029c.116.009.232.013.35.013,2.41,0,4.363-1.649,4.363-3.682s-1.953-3.682-4.363-3.682q-.215,0-.426.018l-.592-.021a5.426,5.426,0,0,0-4.094,1.658,6.616,6.616,0,0,1-.593.535,2.517,2.517,0,0,1-4.108-1.785c0-.04,0-.082,0-.123v-.111a3.866,3.866,0,0,1,.937-2.54,9.231,9.231,0,0,1,7.036-3.192,19.51,19.51,0,0,1,7.216,1.418.634.634,0,0,0,.777-.919,9.9,9.9,0,0,0-8.478-4.77l0-.019a3.439,3.439,0,0,1-3.441-3.446,3.505,3.505,0,0,1,3.538-3.431,14.836,14.836,0,0,1,13,7.874l0-8.929v0a3.266,3.266,0,0,1,.084-.739,3.312,3.312,0,0,1,6.539.739l.008,17.038h0Zm0,0" transform="translate(-109.636 -112.071)" fill="#ffc0a4"/>
      <path id="路径_32922" data-name="路径 32922" d="M158.344,416.789H183.9v5.851H158.344Zm0,0" transform="translate(-138.325 -364.491)" fill="#fff"/>
      <path id="路径_32923" data-name="路径 32923" d="M255.426,416.789h13.622v5.851H255.426Zm0,0" transform="translate(-223.35 -364.491)" fill="#d0f6ff"/>
      <path id="路径_32924" data-name="路径 32924" d="M183.894,464.391v2.791a31.34,31.34,0,0,1-13.551,3.06h-.071a31.379,31.379,0,0,1-11.932-2.371v-3.481Zm0,0" transform="translate(-138.321 -406.243)" fill="#474f6f"/>
      <path id="路径_32925" data-name="路径 32925" d="M269.044,464.391v2.791a31.34,31.34,0,0,1-13.551,3.06h-.071v-5.852Zm0,0" transform="translate(-223.347 -406.243)" fill="#20273a"/>
      <path id="路径_32926" data-name="路径 32926" d="M317.234,430.514a1.412,1.412,0,1,1-1.412-1.412A1.412,1.412,0,0,1,317.234,430.514Zm0,0" transform="translate(-275.078 -375.291)" fill="#474f6f"/>
      <path id="路径_32927" data-name="路径 32927" d="M317.234,478.119a1.412,1.412,0,1,1-1.412-1.412A1.412,1.412,0,0,1,317.234,478.119Zm0,0" transform="translate(-275.078 -417.045)" fill="#ffd112"/>
    </g>
  </g>
</svg>
