<svg xmlns="http://www.w3.org/2000/svg" width="74" height="74" viewBox="0 0 74 74">
  <g id="f2_c" transform="translate(-7553 5711)">
    <rect id="f2_b" width="74" height="74" transform="translate(7553 -5711)" fill="rgba(255,255,255,0)"/>
    <g id="ok" transform="translate(7557.969 -5706.031)">
      <path id="路径_32913" data-name="路径 32913" d="M64,32A32,32,0,1,1,32,0,32,32,0,0,1,64,32Zm0,0" fill="#6ddbd1"/>
      <g id="love" transform="translate(9.365 -34.403)">
        <path id="路径_33007" data-name="路径 33007" d="M29.386,48.278a12.2,12.2,0,0,0-8.8,6.1A12.216,12.216,0,0,0,.145,65.142C2.481,80.312,25.37,85.434,25.37,85.434S45.656,73.661,43.319,58.491A12.216,12.216,0,0,0,29.386,48.278Z" transform="translate(0)" fill="#ff4c4c"/>
        <path id="路径_33008" data-name="路径 33008" d="M312.053,58.491a12.216,12.216,0,0,0-13.934-10.214c-.216.033-.43.073-.641.117a12.637,12.637,0,0,1,9.612,10.1c2.163,11.172-6.232,21.043-11.867,26.245C299.441,82,314.056,71.493,312.053,58.491Z" transform="translate(-268.734)" fill="#f33939"/>
        <path id="路径_33009" data-name="路径 33009" d="M178.275,153.709a9.1,9.1,0,0,0-7.833,1.574,9.114,9.114,0,0,0-17.185,1.313c-2.893,11.08,11.263,21.367,11.263,21.367s17.378-2.052,20.272-13.132A9.114,9.114,0,0,0,178.275,153.709Z" transform="translate(-139.151 -92.529)" fill="#ffccd7"/>
        <path id="路径_33010" data-name="路径 33010" d="M296.142,190.531a9.07,9.07,0,0,0-5.021.119,9.114,9.114,0,0,1,6.1,11c-1.842,7.053-9.528,11.1-14.872,13.106l.035.026s17.378-2.052,20.272-13.132A9.114,9.114,0,0,0,296.142,190.531Z" transform="translate(-257.017 -129.351)" fill="#ffb3cb"/>
      </g>
    </g>
  </g>
</svg>
