<svg xmlns="http://www.w3.org/2000/svg" width="108" height="108" viewBox="0 0 108 108">
  <g id="组_17130" data-name="组 17130" transform="translate(-9106 7718)">
    <rect id="矩形_3592" data-name="矩形 3592" width="108" height="108" transform="translate(9106 -7718)" fill="rgba(255,255,255,0)"/>
    <g id="calendar_1_" data-name="calendar (1)" transform="translate(9115.703 -7701.125)">
      <g id="组_17121" data-name="组 17121" transform="translate(16.311 27.829)">
        <path id="路径_33011" data-name="路径 33011" d="M94.478,202.6h55.77v34.7H94.478Z" transform="translate(-94.478 -202.596)" fill="#a4fcc4"/>
      </g>
      <g id="组_17122" data-name="组 17122">
        <path id="路径_33012" data-name="路径 33012" d="M203.117,268.776a1.726,1.726,0,0,0,1.9,0c1.181-.78,7.145-4.779,8.562-6.934a7.253,7.253,0,0,0,1.305-4.511,6.493,6.493,0,0,0-6.419-6.212,6.736,6.736,0,0,0-4.387,1.9,6.661,6.661,0,0,0-4.43-1.9,6.493,6.493,0,0,0-6.419,6.212,7.246,7.246,0,0,0,1.307,4.512c1.409,2.138,7.393,6.15,8.578,6.932Zm-6.437-11.261a3.079,3.079,0,0,1,2.971-2.944c1.334,0,2.6,1.436,2.971,1.982a1.73,1.73,0,0,0,2.846.045c.377-.526,1.736-2.027,3-2.027a3.079,3.079,0,0,1,2.971,2.944,3.765,3.765,0,0,1-.743,2.429c-.672,1.022-4.006,3.519-6.628,5.31-2.633-1.8-5.979-4.3-6.646-5.312a3.758,3.758,0,0,1-.742-2.428Z" transform="translate(-159.864 -214.913)" fill="#00b2a2"/>
        <path id="路径_33013" data-name="路径 33013" d="M88.391,52.339A6,6,0,0,0,82.4,46.348H78.727V43.126A1.726,1.726,0,0,0,77,41.4H67.612a1.726,1.726,0,0,0-1.726,1.726v3.222h-5.9V43.126A1.726,1.726,0,0,0,58.261,41.4h-9.39a1.726,1.726,0,0,0-1.726,1.726v3.222h-5.9V43.126A1.726,1.726,0,0,0,39.52,41.4H30.131A1.726,1.726,0,0,0,28.4,43.126v3.222h-5.9V43.126A1.726,1.726,0,0,0,20.78,41.4H11.39a1.726,1.726,0,0,0-1.726,1.726v3.222H5.991A6,6,0,0,0,0,52.339V60.99S0,61,0,61,0,61,0,61.007v48.5A6,6,0,0,0,5.991,115.5H82.4a6,6,0,0,0,5.991-5.991v-48.5s0-.006,0-.009,0-.006,0-.009ZM69.338,44.853h5.937V51.3H69.338Zm-18.741,0h5.937V51.3H50.6Zm-18.74,0h5.937V51.3H31.857Zm-18.74,0h5.937V51.3H13.117ZM3.453,52.339A2.541,2.541,0,0,1,5.991,49.8H9.664v3.222A1.726,1.726,0,0,0,11.39,54.75H20.78a1.726,1.726,0,0,0,1.726-1.726V49.8h5.9v3.222a1.726,1.726,0,0,0,1.726,1.726H39.52a1.726,1.726,0,0,0,1.726-1.726V49.8h5.9v3.222a1.726,1.726,0,0,0,1.726,1.726h9.39a1.726,1.726,0,0,0,1.726-1.726V49.8h5.9v3.222a1.726,1.726,0,0,0,1.726,1.726H77a1.726,1.726,0,0,0,1.726-1.726V49.8H82.4a2.541,2.541,0,0,1,2.538,2.538v6.924H3.453Zm81.486,57.167a2.541,2.541,0,0,1-2.538,2.538H5.991a2.541,2.541,0,0,1-2.538-2.538V62.734H84.939Z" transform="translate(0 -41.4)" fill="#00b2a2"/>
      </g>
    </g>
  </g>
</svg>
