<svg xmlns="http://www.w3.org/2000/svg" width="108" height="108" viewBox="0 0 108 108">
  <g id="组_17128" data-name="组 17128" transform="translate(-7910 7717.921)">
    <rect id="矩形_3590" data-name="矩形 3590" width="108" height="108" transform="translate(7910 -7717.921)" fill="rgba(255,255,255,0)"/>
    <g id="money" transform="translate(7915.911 -7696.927)">
      <path id="路径_33017" data-name="路径 33017" d="M96.121,86.079a5.718,5.718,0,0,0-5.709-5.709l-75.873-.008h0a5.7,5.7,0,0,0-5.7,5.707v3.267H5.7A5.7,5.7,0,0,0,0,95.044L.012,140.6a5.718,5.718,0,0,0,5.709,5.709l75.873.007h0a5.7,5.7,0,0,0,5.7-5.707v-3.267h3.128a5.7,5.7,0,0,0,5.7-5.707ZM82.975,141.992a1.936,1.936,0,0,1-1.379.571h0l-75.873-.007A1.958,1.958,0,0,1,3.768,140.6L3.755,95.042a1.949,1.949,0,0,1,1.95-1.95h0l75.873.007a1.958,1.958,0,0,1,1.955,1.955l.012,45.558A1.937,1.937,0,0,1,82.975,141.992Zm8.832-8.974a1.937,1.937,0,0,1-1.379.571H87.3l-.011-38.536a5.718,5.718,0,0,0-5.709-5.709l-68.992-.007V86.069a1.949,1.949,0,0,1,1.95-1.95h0l75.873.007a1.958,1.958,0,0,1,1.955,1.955l.013,45.558a1.938,1.938,0,0,1-.571,1.38Z" transform="translate(0 -80.363)" fill="#00b2a2"/>
      <path id="路径_33018" data-name="路径 33018" d="M116.837,219.356a4.678,4.678,0,0,1,4.681-4.681l-.005-27.039a4.687,4.687,0,0,1-4.685-4.685H59.474a4.678,4.678,0,0,1-4.681,4.681l.005,27.039a4.687,4.687,0,0,1,4.685,4.685Z" transform="translate(-44.505 -163.689)" fill="#a4fcc4"/>
      <path id="路径_33026" data-name="路径 33026" d="M-7964.117,7551.733v-.168a8.575,8.575,0,0,1-5.043-2.851,1.878,1.878,0,0,1,.284-2.64,1.878,1.878,0,0,1,2.64.284,4.418,4.418,0,0,0,2.119,1.335v-6.631c-.627-.246-1.121-.452-1.44-.6a5.7,5.7,0,0,1-3.474-5.674,6.1,6.1,0,0,1,4.163-5.354c.254-.077.5-.143.751-.2v-.43a1.877,1.877,0,0,1,1.877-1.877,1.877,1.877,0,0,1,1.878,1.877v.29a6.6,6.6,0,0,1,4.319,2.54,1.877,1.877,0,0,1-.458,2.615,1.878,1.878,0,0,1-2.616-.458,2.506,2.506,0,0,0-1.245-.834v5.5l.783.279a7.258,7.258,0,0,1,5.145,7.565c-.292,2.3-2.007,4.876-5.928,5.406v.027a1.878,1.878,0,0,1-1.878,1.877A1.878,1.878,0,0,1-7964.117,7551.733Zm3.755-3.842a2.535,2.535,0,0,0,2.2-2.064,3.414,3.414,0,0,0-2.2-3.361Zm-4.924-12.827a1.92,1.92,0,0,0,1.169,1.919v-3.814A2.438,2.438,0,0,0-7965.286,7535.064Zm20.311,7.2a1.878,1.878,0,0,1-1.877-1.877,1.877,1.877,0,0,1,1.877-1.877h6.136a1.878,1.878,0,0,1,1.878,1.877,1.878,1.878,0,0,1-1.878,1.877Zm-39.885,0a1.878,1.878,0,0,1-1.878-1.877,1.878,1.878,0,0,1,1.878-1.877h6.136a1.877,1.877,0,0,1,1.877,1.877,1.878,1.878,0,0,1-1.877,1.877Z" transform="translate(8005.631 -7502.803)" fill="#009688"/>
    </g>
  </g>
</svg>
