<svg xmlns="http://www.w3.org/2000/svg" width="108" height="108" viewBox="0 0 108 108">
  <g id="组_17131" data-name="组 17131" transform="translate(-9703 7718)">
    <rect id="矩形_3593" data-name="矩形 3593" width="108" height="108" transform="translate(9703 -7718)" fill="rgba(255,255,255,0)"/>
    <g id="profit" transform="translate(9719.242 -7707.875)">
      <circle id="椭圆_296" data-name="椭圆 296" cx="14.126" cy="14.126" r="14.126" transform="translate(17.736 23.964) rotate(-45)" fill="#a4fcc4"/>
      <path id="路径_33023" data-name="路径 33023" d="M144.145,47.556a23.962,23.962,0,1,0-8.42,0l-7.361,9.725a1.711,1.711,0,0,0,1.364,2.744h3.611V85.9a1.711,1.711,0,0,0,1.711,1.711h9.77a1.711,1.711,0,0,0,1.711-1.711V60.025h3.611a1.711,1.711,0,0,0,1.364-2.744ZM119.4,23.962a20.54,20.54,0,1,1,22.377,20.459L141.3,43.8a1.711,1.711,0,0,0-2.729,0l-.473.624A20.542,20.542,0,0,1,119.4,23.962ZM144.82,56.6a1.711,1.711,0,0,0-1.711,1.711v25.88h-6.348V58.314A1.711,1.711,0,0,0,135.05,56.6h-1.881l6.766-8.938L146.7,56.6Z" transform="translate(-102.218)" fill="#00b2a2"/>
      <path id="路径_33024" data-name="路径 33024" d="M360.6,349.993l-10.207-13.484a1.711,1.711,0,0,0-2.729,0l-10.207,13.484a1.711,1.711,0,0,0,1.364,2.744h3.611v11.529a1.711,1.711,0,0,0,1.711,1.711h9.77a1.711,1.711,0,0,0,1.711-1.711V352.737h3.611a1.711,1.711,0,0,0,1.364-2.744Zm-6.687-.678a1.711,1.711,0,0,0-1.711,1.711v11.529h-6.348V351.026a1.711,1.711,0,0,0-1.711-1.711h-1.881l6.766-8.938,6.766,8.938Z" transform="translate(-285.513 -278.361)" fill="#00b2a2"/>
      <path id="路径_33025" data-name="路径 33025" d="M48.878,336.508a1.711,1.711,0,0,0-2.729,0L35.942,349.993a1.711,1.711,0,0,0,1.364,2.744h3.611v11.529a1.711,1.711,0,0,0,1.711,1.711H52.4a1.711,1.711,0,0,0,1.711-1.711V352.737h3.611a1.711,1.711,0,0,0,1.364-2.744ZM52.4,349.314a1.711,1.711,0,0,0-1.711,1.711v11.529H44.34V351.026a1.711,1.711,0,0,0-1.711-1.711H40.748l6.766-8.938,6.766,8.938Z" transform="translate(-35.595 -278.361)" fill="#00b2a2"/>
      <path id="路径_33027" data-name="路径 33027" d="M-7900.955,7547.286v-.139a7.035,7.035,0,0,1-4.139-2.34,1.541,1.541,0,0,1,.233-2.167,1.542,1.542,0,0,1,2.167.233,3.628,3.628,0,0,0,1.739,1.1v-5.442c-.515-.2-.92-.371-1.182-.494a4.674,4.674,0,0,1-2.851-4.657,5.011,5.011,0,0,1,3.417-4.4q.312-.094.616-.163v-.353a1.541,1.541,0,0,1,1.541-1.541,1.541,1.541,0,0,1,1.541,1.541v.238a5.419,5.419,0,0,1,3.545,2.084,1.541,1.541,0,0,1-.376,2.146,1.541,1.541,0,0,1-2.147-.376,2.061,2.061,0,0,0-1.022-.685v4.515l.642.229a5.957,5.957,0,0,1,4.223,6.209c-.24,1.888-1.648,4-4.866,4.437v.022a1.541,1.541,0,0,1-1.541,1.541A1.541,1.541,0,0,1-7900.955,7547.286Zm3.083-3.153a2.081,2.081,0,0,0,1.808-1.694,2.8,2.8,0,0,0-1.808-2.758Zm-4.042-10.528a1.576,1.576,0,0,0,.959,1.575v-3.13A2,2,0,0,0-7901.915,7533.6Z" transform="translate(7936.823 -7513.913)" fill="#009688"/>
    </g>
  </g>
</svg>
