<svg xmlns="http://www.w3.org/2000/svg" xmlns:xlink="http://www.w3.org/1999/xlink" width="136" height="136" viewBox="0 0 136 136">
  <defs>
    <linearGradient id="linear-gradient" x1="0.5" x2="0.5" y2="1" gradientUnits="objectBoundingBox">
      <stop offset="0" stop-color="#ff637b"/>
      <stop offset="1" stop-color="#ab124b"/>
    </linearGradient>
  </defs>
  <g id="f1_a" transform="translate(-7439 5482)">
    <g id="椭圆_281" data-name="椭圆 281" transform="translate(7439 -5482)" fill="none" stroke="#f9bed1" stroke-width="5">
      <circle cx="68" cy="68" r="68" stroke="none"/>
      <circle cx="68" cy="68" r="65.5" fill="none"/>
    </g>
    <g id="money-bag" transform="translate(7471 -5456)">
      <path id="联合_8" data-name="联合 8" d="M-7471,5517.151c0-16.2,12.57-30.725,27.877-32.173h.141a22.249,22.249,0,0,1,2.473-.094c17.923,0,32.3,17.75,30.1,35.859-2.1,15.448-17.174,17.409-30.1,17.409C-7453.528,5538.153-7471,5535.959-7471,5517.151Zm18.963-36.748-4.667-14.156a2.252,2.252,0,0,1,.279-2.1,2.433,2.433,0,0,1,1.914-.98h7.421a6.978,6.978,0,0,1,6.579-4.667,7.024,7.024,0,0,1,6.581,4.667h7.421a2.435,2.435,0,0,1,1.915.98,2.248,2.248,0,0,1,.279,2.1l-4.669,14.156Z" transform="translate(7471 -5458.5)" fill="url(#linear-gradient)"/>
      <path id="路径_32787" data-name="路径 32787" d="M333.825,276.667a4.681,4.681,0,0,1-4.667,4.667L317.335,286l-11.668-4.667a4.667,4.667,0,0,1,0-9.334h23.491A4.681,4.681,0,0,1,333.825,276.667Zm0,0" transform="translate(-254.173 -229.685)" fill="#fdbf00"/>
      <path id="路径_32789" data-name="路径 32789" d="M333.825,336.667a4.681,4.681,0,0,1-4.667,4.667L317.335,346l-11.668-4.667a4.667,4.667,0,0,1,0-9.334h23.491A4.681,4.681,0,0,1,333.825,336.667Zm0,0" transform="translate(-254.173 -280.35)" fill="#ef9b47"/>
      <path id="路径_32791" data-name="路径 32791" d="M333.825,396.667a4.681,4.681,0,0,1-4.667,4.667L317.335,406l-11.668-4.667a4.667,4.667,0,0,1,0-9.334h23.491A4.681,4.681,0,0,1,333.825,396.667Zm0,0" transform="translate(-254.173 -331.016)" fill="#fdbf00"/>
      <path id="路径_32793" data-name="路径 32793" d="M333.825,456.667a4.681,4.681,0,0,1-4.667,4.667H305.667a4.667,4.667,0,0,1,0-9.334h23.491A4.681,4.681,0,0,1,333.825,456.667Zm0,0" transform="translate(-254.173 -381.682)" fill="#ef9b47"/>
      <path id="路径_32795" data-name="路径 32795" d="M123.67,125.667A4.681,4.681,0,0,1,119,130.334H95.667a4.667,4.667,0,1,1,0-9.334H119A4.681,4.681,0,0,1,123.67,125.667Zm0,0" transform="translate(-76.843 -102.176)" fill="#b43f58"/>
      <g id="组_17056" data-name="组 17056" transform="translate(14.33 40.666) rotate(-17)">
        <path id="路径_32691" data-name="路径 32691" d="M-3661.613-708.49a3.374,3.374,0,0,0,.233-1.165,2.453,2.453,0,0,0-.255-1.076,4.653,4.653,0,0,0-.767-1.1,12.286,12.286,0,0,0-1.305-1.214,32.05,32.05,0,0,1-2.418-2.212,10.133,10.133,0,0,1-1.675-2.205,6,6,0,0,1-.73-2.37,6.175,6.175,0,0,1,.431-2.7,6.159,6.159,0,0,1,1.306-2.137,5.688,5.688,0,0,1,1.954-1.336,7.1,7.1,0,0,1,2.459-.514,9.47,9.47,0,0,1,2.83.351l1.184-3.18,2.56.953-1.2,3.225a8.5,8.5,0,0,1,2.225,1.657,6.606,6.606,0,0,1,1.373,2.135,6.589,6.589,0,0,1,.436,2.523,8.527,8.527,0,0,1-.575,2.84l-4.624-1.721a4.149,4.149,0,0,0,.2-2.963,2.889,2.889,0,0,0-1.791-1.673,3.679,3.679,0,0,0-1.315-.261,2.485,2.485,0,0,0-1.061.231,2.318,2.318,0,0,0-.8.64,3.393,3.393,0,0,0-.542.966,3.155,3.155,0,0,0-.211,1.055,2.322,2.322,0,0,0,.245,1.031,4.682,4.682,0,0,0,.775,1.1,15.7,15.7,0,0,0,1.35,1.29q1.334,1.157,2.381,2.24a10.317,10.317,0,0,1,1.661,2.217,6.077,6.077,0,0,1,.727,2.377,6.138,6.138,0,0,1-.426,2.684,6.176,6.176,0,0,1-1.33,2.178,5.615,5.615,0,0,1-1.957,1.319,6.858,6.858,0,0,1-2.461.471,10.214,10.214,0,0,1-2.837-.379l-1.1,2.957-2.543-.947,1.1-2.942a11.464,11.464,0,0,1-2.353-1.535,7.248,7.248,0,0,1-1.721-2.1,6.489,6.489,0,0,1-.747-2.69,7.913,7.913,0,0,1,.564-3.275l4.624,1.721a4.853,4.853,0,0,0-.36,1.871,3.135,3.135,0,0,0,.371,1.424,3.062,3.062,0,0,0,.906,1.015,5.227,5.227,0,0,0,1.225.65,4.373,4.373,0,0,0,1.392.3,2.912,2.912,0,0,0,1.15-.181,2.321,2.321,0,0,0,.878-.6A2.827,2.827,0,0,0-3661.613-708.49Z" transform="translate(3672.947 729.346)" fill="#ffb5c3" stroke="rgba(0,0,0,0)" stroke-width="1"/>
      </g>
    </g>
  </g>
</svg>
