<svg xmlns="http://www.w3.org/2000/svg" xmlns:xlink="http://www.w3.org/1999/xlink" width="136" height="136" viewBox="0 0 136 136">
  <defs>
    <linearGradient id="linear-gradient" x1="0.5" x2="0.5" y2="1" gradientUnits="objectBoundingBox">
      <stop offset="0" stop-color="#ff637b"/>
      <stop offset="1" stop-color="#ab124b"/>
    </linearGradient>
  </defs>
  <g id="f1_c" transform="translate(-7439 5482)">
    <g id="椭圆_281" data-name="椭圆 281" transform="translate(7439 -5482)" fill="none" stroke="#f9bed1" stroke-width="5">
      <circle cx="68" cy="68" r="68" stroke="none"/>
      <circle cx="68" cy="68" r="65.5" fill="none"/>
    </g>
    <g id="list" transform="translate(7417.427 -5452)">
      <rect id="矩形_3576" data-name="矩形 3576" width="44" height="46" transform="translate(69.573 23)" fill="#fdbf00"/>
      <path id="路径_32800" data-name="路径 32800" d="M98.265,15.462V1.012h-30.7A2.989,2.989,0,0,0,64.573,4V70.06a2.989,2.989,0,0,0,2.989,2.989h47.826a2.989,2.989,0,0,0,2.989-2.989V21.049H103.852a5.593,5.593,0,0,1-5.587-5.587ZM86.194,57.508l-6.359,6.359a2.11,2.11,0,0,1-2.984,0l-2.64-2.64A2.11,2.11,0,1,1,77.2,58.243l1.148,1.148,4.867-4.867a2.11,2.11,0,1,1,2.984,2.984Zm0-14.07L79.835,49.8a2.11,2.11,0,0,1-2.984,0l-2.64-2.64A2.11,2.11,0,0,1,77.2,44.173l1.148,1.148,4.867-4.867a2.11,2.11,0,1,1,2.984,2.984Zm0-15.144-6.359,6.359a2.11,2.11,0,0,1-2.984,0l-2.64-2.64A2.11,2.11,0,1,1,77.2,29.029l1.148,1.148,4.867-4.867a2.11,2.11,0,1,1,2.984,2.985Zm21.053,33.012H93.74a2.11,2.11,0,0,1,0-4.221h13.507a2.11,2.11,0,0,1,0,4.221ZM91.63,45.126a2.111,2.111,0,0,1,2.11-2.11h13.447a2.11,2.11,0,0,1,0,4.221H93.74A2.111,2.111,0,0,1,91.63,45.126ZM109.3,31.056a2.111,2.111,0,0,1-2.11,2.11H93.74a2.11,2.11,0,0,1,0-4.221h13.447a2.111,2.111,0,0,1,2.11,2.11Z" transform="translate(0 -0.87)" fill="url(#linear-gradient)"/>
      <path id="路径_32801" data-name="路径 32801" d="M334.038,14.593a1.367,1.367,0,0,0,1.366,1.366h14.73L334.038,0Z" transform="translate(-231.552)" fill="url(#linear-gradient)"/>
    </g>
  </g>
</svg>
