<svg xmlns="http://www.w3.org/2000/svg" xmlns:xlink="http://www.w3.org/1999/xlink" width="136" height="136" viewBox="0 0 136 136">
  <defs>
    <linearGradient id="linear-gradient" x1="0.5" x2="0.5" y2="1" gradientUnits="objectBoundingBox">
      <stop offset="0" stop-color="#ff637b"/>
      <stop offset="1" stop-color="#ab124b"/>
    </linearGradient>
  </defs>
  <g id="f1_d" transform="translate(-7439 5482)">
    <g id="椭圆_281" data-name="椭圆 281" transform="translate(7439 -5482)" fill="none" stroke="#f9bed1" stroke-width="5">
      <circle cx="68" cy="68" r="68" stroke="none"/>
      <circle cx="68" cy="68" r="65.5" fill="none"/>
    </g>
    <g id="calendar" transform="translate(7474 -5450)">
      <path id="路径_32802" data-name="路径 32802" d="M68.9,36.92a6.1,6.1,0,0,0-5.159-2.825H53.366L51.449,30l-2.178,4.095H32.893l-2-4.095L28.8,34.095H12.42L10.46,30,8.326,34.095H6.142A6.134,6.134,0,0,0,0,40.236v53.5a2.027,2.027,0,0,0,2.047,2.047H67.833a2.027,2.027,0,0,0,2.047-2.047v-53.5A5.941,5.941,0,0,0,68.9,36.92Z" transform="translate(0 -25.905)" fill="url(#linear-gradient)"/>
      <path id="路径_32803" data-name="路径 32803" d="M87.615,24.7A18.425,18.425,0,1,0,106.04,43.129,18.453,18.453,0,0,0,87.615,24.7Z" transform="translate(-52.674)" fill="#ef9b47"/>
      <path id="路径_32804" data-name="路径 32804" d="M73.284,14.331V6.142A6.142,6.142,0,0,0,61,6.142V8.189h4.095V6.142a2.047,2.047,0,1,1,4.095,0v8.189a2.027,2.027,0,0,1-2.047,2.047,2.047,2.047,0,1,0,0,4.095A6.134,6.134,0,0,0,73.284,14.331ZM85.567,6.142a2.047,2.047,0,1,1,4.095,0v8.189a2.027,2.027,0,0,1-2.047,2.047,2.047,2.047,0,0,0,0,4.095,6.134,6.134,0,0,0,6.142-6.142V6.142a6.142,6.142,0,0,0-12.284,0V8.189h4.095ZM108.087,0a6.134,6.134,0,0,0-6.142,6.142V8.189h4.095V6.142a2.047,2.047,0,1,1,4.095,0v8.189a2.027,2.027,0,0,1-2.047,2.047,2.047,2.047,0,0,0,0,4.095,6.134,6.134,0,0,0,6.142-6.142V6.142A6.134,6.134,0,0,0,108.087,0Z" transform="translate(-52.674)" fill="#ffb5c3"/>
      <path id="路径_32805" data-name="路径 32805" d="M89.662,43.129a1.92,1.92,0,0,1-.614,1.433l-5.773,5.814a2.134,2.134,0,0,1-2.907,0,2.1,2.1,0,0,1,0-2.907l5.2-5.2V34.94a2.047,2.047,0,1,1,4.095,0Z" transform="translate(-52.674)" fill="#fff"/>
    </g>
  </g>
</svg>
