<svg xmlns="http://www.w3.org/2000/svg" xmlns:xlink="http://www.w3.org/1999/xlink" width="74" height="74" viewBox="0 0 74 74">
  <defs>
    <linearGradient id="linear-gradient" x1="0.5" x2="0.5" y2="1" gradientUnits="objectBoundingBox">
      <stop offset="0" stop-color="#ff637b"/>
      <stop offset="1" stop-color="#ab124b"/>
    </linearGradient>
  </defs>
  <g id="f2_a" transform="translate(-7439 5711)">
    <rect id="f2_a-2" data-name="f2_a" width="74" height="74" transform="translate(7439 -5711)" fill="rgba(255,255,255,0)"/>
    <path id="路径_32808" data-name="路径 32808" d="M49.587,24.569,49.4,23.12a.946.946,0,0,1,.816-1.06l4.776-.621a.946.946,0,0,1,1.06.816L56.24,23.7a.946.946,0,0,1-.816,1.06l-4.776.621a.945.945,0,0,1-1.06-.816ZM47.476,17.34l-.717-1.273a.946.946,0,0,1,.36-1.288l4.2-2.365a.946.946,0,0,1,1.288.36l.717,1.273a.946.946,0,0,1-.36,1.288l-4.2,2.365a.945.945,0,0,1-1.288-.36ZM42.81,11.428l-1.142-.911a.946.946,0,0,1-.149-1.329l3-3.764a.946.946,0,0,1,1.329-.149L47,6.185a.946.946,0,0,1,.149,1.329l-3,3.764a.945.945,0,0,1-1.329.149ZM18.937,8.808,16.72,4.532a.946.946,0,0,1,.4-1.275l1.3-.672a.946.946,0,0,1,1.275.4l2.217,4.276a.946.946,0,0,1-.4,1.275l-1.3.672a.945.945,0,0,1-1.275-.4ZM36.27,7.694l-1.4-.417A.946.946,0,0,1,34.234,6.1L35.61,1.485A.946.946,0,0,1,36.786.849l1.4.417a.946.946,0,0,1,.636,1.177L37.446,7.058a.945.945,0,0,1-1.177.636ZM26.322,5.968l-.453-4.8A.946.946,0,0,1,26.721.142L28.176,0a.946.946,0,0,1,1.03.852l.454,4.8a.946.946,0,0,1-.853,1.031l-1.454.138q-.045,0-.09,0A.946.946,0,0,1,26.322,5.968Z" transform="translate(7446 -5701)" fill="url(#linear-gradient)"/>
    <path id="路径_32809" data-name="路径 32809" d="M23.3,51.921A26.417,26.417,0,0,1,3.985,21.647L.692,20.728a.946.946,0,0,1-.407-1.587l9.45-9.253a.946.946,0,0,1,1.578.44l3.29,12.81a.946.946,0,0,1-1.17,1.146l-3.025-.844A19.78,19.78,0,0,0,25.186,45.571C35.638,48.165,46.2,41.619,49.1,31.247l.509-1.825a.946.946,0,0,1,1.165-.657l4.555,1.272a.946.946,0,0,1,.657,1.165L55.5,32.947A26.975,26.975,0,0,1,29.79,52.756,25.744,25.744,0,0,1,23.3,51.921Z" transform="translate(7446 -5701)" fill="url(#linear-gradient)"/>
    <path id="路径_32810" data-name="路径 32810" d="M38.589,34.046H31.05V29.172L38.9,18.644h3.634V30.235h2.707l-1.131,3.81H42.534v4.028l-3.945,1.441ZM34.9,30.235h3.689V25.456Zm-17.515,7V32.753a11.512,11.512,0,0,1,.088-1.777q.088-.458.242-1.07a3.879,3.879,0,0,1,.471-1.117,3.319,3.319,0,0,1,.673-.8,3.8,3.8,0,0,1,.774-.5,5.433,5.433,0,0,1,1.037-.357,11.809,11.809,0,0,1,1.521-.256q.9-.1,1.131-.155l.417-.081a10.1,10.1,0,0,0,1.124-.209.808.808,0,0,0,.417-.343,1.715,1.715,0,0,0,.222-.821l.04-1.023a2.586,2.586,0,0,0-.229-1.669.948.948,0,0,0-.5-.3,7.278,7.278,0,0,0-.875-.034H22.81a1.721,1.721,0,0,0-.788.162,1.62,1.62,0,0,0-.478.343,2.636,2.636,0,0,0-.229,1.178q-.067,1-.054,1.212v.4H17.371V24.5q0-1.629.067-2.511a3.952,3.952,0,0,1,.458-1.6,3.016,3.016,0,0,1,.821-1.03,3.388,3.388,0,0,1,.855-.458,7,7,0,0,1,.99-.256,5.761,5.761,0,0,1,1.077-.108h3.837a4.8,4.8,0,0,1,1.03.148A6.706,6.706,0,0,1,27.549,19a2.6,2.6,0,0,1,.714.437,3.714,3.714,0,0,1,1,1.333,6.578,6.578,0,0,1,.3.707,4.74,4.74,0,0,1,.141.882q.061.633.081.9t.02,1.178a18.434,18.434,0,0,1-.1,2.093,5.752,5.752,0,0,1-.222,1.023,5.638,5.638,0,0,1-.35.808,4.385,4.385,0,0,1-.5.754,2.143,2.143,0,0,1-.788.572,4.348,4.348,0,0,1-.747.283q-.242.054-2.114.269l-1.9.283a2.869,2.869,0,0,0-.889.215,1.073,1.073,0,0,0-.417.4,1.445,1.445,0,0,0-.2.586l-.027.875-.013.283a.538.538,0,0,0,.094.39.416.416,0,0,0,.155.135.489.489,0,0,0,.2.061q.094.007.592.007h7.283l-1.589,3.77Z" transform="translate(7446 -5703)" fill="#ef9b47"/>
  </g>
</svg>
