<svg xmlns="http://www.w3.org/2000/svg" xmlns:xlink="http://www.w3.org/1999/xlink" width="74" height="74" viewBox="0 0 74 74">
  <defs>
    <linearGradient id="linear-gradient" x1="0.5" x2="0.5" y2="1" gradientUnits="objectBoundingBox">
      <stop offset="0" stop-color="#ff637b"/>
      <stop offset="1" stop-color="#ab124b"/>
    </linearGradient>
  </defs>
  <g id="f2_b" transform="translate(-7553 5711)">
    <rect id="f2_b-2" data-name="f2_b" width="74" height="74" transform="translate(7553 -5711)" fill="rgba(255,255,255,0)"/>
    <g id="question" transform="translate(7565 -5701)">
      <path id="联合_9" data-name="联合 9" d="M-7520.553,5749.908l-8.291-8.289,0,0-1.741-1.741a20.946,20.946,0,0,1-11.34,3.3,20.955,20.955,0,0,1-14.912-6.178,21.113,21.113,0,0,1,0-29.821,20.95,20.95,0,0,1,14.912-6.176,20.951,20.951,0,0,1,14.912,6.176,20.955,20.955,0,0,1,6.176,14.912,20.948,20.948,0,0,1-3.3,11.332l3.669,3.67,0,0,6.364,6.364a4.566,4.566,0,0,1,0,6.451,4.53,4.53,0,0,1-3.228,1.338A4.523,4.523,0,0,1-7520.553,5749.908Zm-32.025-38.477a14.976,14.976,0,0,0-4.413,10.657,14.967,14.967,0,0,0,4.413,10.655,14.968,14.968,0,0,0,10.655,4.412,14.976,14.976,0,0,0,10.655-4.412,14.969,14.969,0,0,0,4.414-10.655,14.977,14.977,0,0,0-4.414-10.657,14.976,14.976,0,0,0-10.655-4.412A14.969,14.969,0,0,0-7552.578,5711.431Z" transform="translate(7563 -5701)" fill="url(#linear-gradient)"/>
      <path id="路径_32827" data-name="路径 32827" d="M0,17.076l2.762-2.752,2.762,2.752L2.762,19.828Zm4.854-4.828L9.522,7.6,10.9,8.973a3,3,0,0,0,4.228,0,2.97,2.97,0,0,0,0-4.212,3,3,0,0,0-4.228,0L8.141,2.009a6.923,6.923,0,0,1,9.753,0,6.852,6.852,0,0,1,0,9.716A6.928,6.928,0,0,1,9.721,12.9L7.617,15Z" transform="matrix(0.07, -0.998, 0.998, 0.07, 10.921, 29.627)" fill="#ef9b47"/>
    </g>
  </g>
</svg>
